<svg xmlns="http://www.w3.org/2000/svg" viewBox="0 0 65.06 41"><defs><style>.cls-1{fill:#fff;}</style></defs><g id="Layer_2" data-name="Layer 2"><g id="Layer_1-2" data-name="Layer 1"><path class="cls-1" d="M32.53,41H3.46A3.11,3.11,0,0,1,0,37.57V3.4A3.11,3.11,0,0,1,3.43,0H61.62a3.13,3.13,0,0,1,3.44,3.46q0,17.09,0,34.17a3.25,3.25,0,0,1-1.29,2.79,3.38,3.38,0,0,1-2.12.58ZM5.93,34.79H59.11V7.17c-.21.13-.35.2-.48.29q-12.56,7.7-25.1,15.42a2.3,2.3,0,0,1-2.73,0Q18.71,15.2,6.58,7.61l-.65-.38ZM53.35,6.23H11.54l.49.33q9.81,6.17,19.6,12.33a.92.92,0,0,0,1.13,0q9.77-6,19.56-12Z"/></g></g></svg>