<?xml version="1.0" encoding="UTF-8"?>
<svg version="1.1" xmlns="http://www.w3.org/2000/svg" width="529" height="529">
<path d="M0 0 C0.88365234 0.33862061 0.88365234 0.33862061 1.78515625 0.68408203 C17.78120516 6.84955715 30.3432754 16.6765182 43 28 C43.52529297 28.46744629 44.05058594 28.93489258 44.59179688 29.41650391 C48.46151747 32.87509718 52.24249692 36.42015664 56 40 C56.71269043 40.67337402 57.42538086 41.34674805 58.15966797 42.04052734 C79.02007259 61.85813266 93.30377758 83.01155235 94.203125 112.8984375 C94.37850588 125.47427789 94.01460928 137.95617217 90 150 C89.90784763 151.39350355 89.86988531 152.79098356 89.86692142 154.18752766 C89.86268038 155.04526573 89.85843933 155.90300379 89.85406977 156.78673393 C89.8544559 157.72950995 89.85484203 158.67228598 89.85523987 159.64363098 C89.85171302 160.64495377 89.84818618 161.64627655 89.84455246 162.67794245 C89.83383732 166.04937835 89.8301795 169.42078603 89.82641602 172.79223633 C89.8201126 175.2034314 89.81334704 177.6146253 89.80615234 180.02581787 C89.79146323 185.22809836 89.77966482 190.4303772 89.77020454 195.63266945 C89.75632168 203.1695874 89.73513038 210.70647192 89.71177601 218.24336585 C89.67384052 230.49125615 89.63888634 242.73915255 89.60717773 254.98706055 C89.60527724 255.72037354 89.60337675 256.45368654 89.60141867 257.20922115 C89.57463845 267.59507708 89.55075255 277.98093768 89.52803367 288.36680319 C89.52563771 289.46177004 89.52563771 289.46177004 89.52319336 290.57885742 C89.52159989 291.30794151 89.52000643 292.03702561 89.51836468 292.78820316 C89.49152849 304.9767039 89.45709661 317.1651694 89.41653961 329.35363215 C89.39185475 336.86302396 89.37347791 344.37237798 89.363384 351.88180383 C89.35506861 357.65130973 89.33652394 363.42074854 89.31432343 369.19021606 C89.30688524 371.54672615 89.30276913 373.90324957 89.30232811 376.25977135 C89.28942011 414.43909732 80.00175125 446.09877256 53 474 C49.48897418 477.23762627 45.83165425 480.15346463 42 483 C41.27167969 483.58910156 40.54335938 484.17820312 39.79296875 484.78515625 C22.60132284 498.00255126 -2.80391245 506.02802681 -24.3752594 506.15821838 C-25.61510306 506.16800783 -26.85494673 506.17779728 -28.13236141 506.18788338 C-29.49131671 506.19379012 -30.85027243 506.19959975 -32.20922852 506.20532227 C-33.65849607 506.21491525 -35.10776094 506.22492068 -36.55702305 506.23530388 C-40.50306911 506.26233625 -44.44912702 506.28337832 -48.39521456 506.30329776 C-52.59144896 506.32544475 -56.78764894 506.35292601 -60.9838562 506.37965393 C-69.05908043 506.43013 -77.13432596 506.47515616 -85.20959449 506.51790267 C-91.69541331 506.5522651 -98.18121993 506.58840721 -104.66702271 506.62567139 C-187.06289049 507.09759835 -187.06289049 507.09759835 -227.86622238 507.12293625 C-230.40130699 507.12497095 -232.9363841 507.12870599 -235.47146606 507.13284302 C-250.17171029 507.15398312 -264.86187094 507.10437209 -279.5546875 506.5703125 C-280.58198471 506.53366486 -281.60928192 506.49701721 -282.66770935 506.45925903 C-317.4588369 504.99263194 -345.08379036 490.25488636 -368.75 465.125 C-392.48581537 439.12242268 -397.46518444 405.40260365 -397.41992188 371.65991211 C-397.42727603 369.04760376 -397.43586614 366.43529866 -397.44558716 363.82299805 C-397.46647704 357.50440575 -397.4711915 351.18590552 -397.46939927 344.86728274 C-397.46808303 339.72108157 -397.47193933 334.5749087 -397.47932434 329.42871284 C-397.50218529 313.18548215 -397.5077478 296.94233864 -397.49981004 280.69909502 C-397.49424209 267.94888921 -397.5150398 255.19888479 -397.54817051 242.44872599 C-397.58207721 229.29580389 -397.59705469 216.14297779 -397.59245348 202.99001127 C-397.59022549 195.63019291 -397.59520332 188.27056048 -397.62034607 180.91077995 C-397.64382359 173.9805154 -397.64057242 167.05067256 -397.62041855 160.12039948 C-397.61704296 157.59755434 -397.62194558 155.07468014 -397.63640213 152.55187416 C-397.83222899 115.80088201 -389.31652141 84.16894981 -364 57 C-363.25105469 56.16984375 -362.50210938 55.3396875 -361.73046875 54.484375 C-337.77741398 29.06480667 -304.42259533 21.57303899 -270.859375 20.44580078 C-269.60993103 20.40369036 -268.36048706 20.36157993 -267.07318115 20.31819344 C-252.56097387 19.87055909 -238.050856 19.85295695 -223.53294373 19.8656745 C-219.60952701 19.86827471 -215.68611217 19.86583994 -211.76269531 19.86428833 C-205.18424042 19.86248831 -198.6057969 19.86481506 -192.02734375 19.86962891 C-184.5104697 19.87506726 -176.99362281 19.87330305 -169.47674942 19.8678025 C-162.92714334 19.86320859 -156.37754526 19.86265098 -149.82793808 19.86524117 C-145.95808215 19.86677 -142.08823882 19.86709464 -138.21838379 19.86370468 C-134.59251913 19.86082525 -130.96668386 19.86232486 -127.34082222 19.86779428 C-125.94586853 19.86965593 -124.55091309 19.87050065 -123.15595818 19.8702867 C-115.66665962 19.87255108 -108.20876527 19.99816089 -100.72973633 20.40509033 C-100.06273272 20.43884187 -99.3957291 20.47259341 -98.70851326 20.50736773 C-95.56171533 20.66698053 -92.42113396 20.85098487 -89.27886963 21.08498955 C-82.14181513 21.47408233 -77.61956907 20.89373549 -72.1875 16.0625 C-70.62521435 14.55208108 -69.10624485 13.00891719 -67.58984375 11.45263672 C-51.34957599 -3.38606002 -19.8920241 -8.12450403 0 0 Z " fill="#141A1F" transform="translate(421,13)"/>
<path d="M0 0 C-1.18400754 6.24666044 -5.99192738 10.22621446 -10.6875 14.1875 C-14.80267044 17.67987645 -18.38759178 21.58768068 -21.99389648 25.58764648 C-24.51427825 28.38216425 -27.06195497 31.11631993 -29.75 33.75 C-33.37994372 37.31973138 -36.67009552 41.1524213 -40 45 C-45.54922426 51.35757583 -51.34271792 57.39087455 -57.34008789 63.32080078 C-60.770597 66.72664446 -64.0020416 70.22185954 -67.12890625 73.91015625 C-69.64383494 76.71910583 -72.31835808 79.35108098 -75 82 C-78.22209967 85.18287752 -81.39052486 88.34690158 -84.3125 91.8125 C-87.81446779 95.93703984 -91.65864747 99.69571275 -95.5 103.5 C-99.88699117 107.84470183 -104.15178766 112.19046308 -108.1328125 116.9140625 C-111.34142487 120.49857924 -114.80947678 123.82856795 -118.22949219 127.20996094 C-121.80517575 130.76077018 -125.19739389 134.39988739 -128.4609375 138.2421875 C-130.60655063 140.69276087 -132.93125414 142.94138769 -135.25390625 145.22265625 C-137.06477643 147.06593574 -138.75321354 148.97822799 -140.4375 150.9375 C-142.85617779 153.74576347 -145.35899683 156.39970593 -148 159 C-151.20383775 162.16087441 -154.21527471 165.40216741 -157.07421875 168.87890625 C-159 171 -159 171 -161.51953125 172.96484375 C-170.81443478 180.92607152 -170.74366661 190.50180441 -172.02734375 202.05859375 C-172.94546154 210.20071627 -174.52645399 218.12044558 -176.25 226.125 C-176.85847605 228.98764861 -177.46296875 231.85112916 -178.06640625 234.71484375 C-178.22178864 235.45069702 -178.37717102 236.18655029 -178.53726196 236.94470215 C-180.54322213 246.50161745 -182.36657943 256.09391565 -184.1875 265.6875 C-184.35935822 266.59195862 -184.53121643 267.49641724 -184.70828247 268.42828369 C-186.77340164 279.31464459 -188.77514289 290.20817144 -190.63574219 301.1315918 C-194.18334205 321.87878593 -198.37041086 342.51749389 -203.16796875 363.01171875 C-203.35093506 363.80384766 -203.53390137 364.59597656 -203.72241211 365.41210938 C-204.05552737 366.8487749 -204.39530374 368.28392701 -204.74438477 369.71679688 C-206.14154248 375.75454071 -206.58387303 381.82594231 -207 388 C-205.89301758 387.66266846 -204.78603516 387.32533691 -203.64550781 386.9777832 C-199.43477224 385.69610349 -195.22205504 384.42103937 -191.00878906 383.14770508 C-189.20487906 382.6015833 -187.40147095 382.05380021 -185.59863281 381.50415039 C-175.05997092 378.2925079 -164.51158318 375.30581685 -153.80799866 372.69241333 C-147.85893956 371.23547195 -142.01754568 369.56722415 -136.1875 367.6875 C-127.05247932 364.82472274 -117.84022873 362.34970164 -108.5625 360 C-98.24332302 357.38536488 -87.99350436 354.61409714 -77.78979492 351.57421875 C-70.51799004 349.4157945 -63.20902107 347.43542659 -55.875 345.5 C-46.63139826 343.05620213 -37.51304509 340.35832752 -28.44213867 337.33496094 C-23.50955959 335.71015446 -18.81277968 334.55675699 -13.6875 333.75 C-8.85163317 332.69101117 -6.97085138 331.2751689 -4.05859375 327.30859375 C-0.31367448 322.50424882 3.65308401 318.15312465 7.9765625 313.86328125 C8.59599228 313.24808624 9.21542206 312.63289124 9.85362244 311.99905396 C11.77359604 310.09961968 13.69873991 308.20555707 15.625 306.3125 C18.18310802 303.79120159 20.7379213 301.26662878 23.2890625 298.73828125 C24.19963409 297.8360936 24.19963409 297.8360936 25.12860107 296.91567993 C28.69817328 293.35832082 32.09407027 289.71813549 35.35302734 285.87182617 C39.62073046 281.0214734 44.37050216 276.59585649 48.97265625 272.06640625 C53.29086915 267.78978128 57.45017919 263.45628431 61.40917969 258.84472656 C63.82802593 256.03981524 66.35139789 253.3354098 68.875 250.625 C72.44513573 246.77476645 75.99647738 242.91120526 79.5 239 C82.92623411 235.17795545 86.39032764 231.39363738 89.875 227.625 C90.3805542 227.0781958 90.8861084 226.5313916 91.40698242 225.96801758 C92.43032202 224.86131285 93.45367815 223.7546234 94.47705078 222.64794922 C102.55209415 213.94053503 102.55209415 213.94053503 110.4375 205.0625 C114.06307959 200.87779488 117.83424853 196.83178912 121.60180664 192.77539062 C124.25163017 189.91644678 126.85456411 187.03712611 129.375 184.0625 C132.06938407 180.92781414 134.96176487 178.05334387 137.91625977 175.16821289 C144.37175573 168.85538932 150.11715996 162.33549906 155.5859375 155.15625 C161.87495521 146.93371551 161.87495521 146.93371551 165 144 C165.66 144 166.32 144 167 144 C167.07025946 169.6354842 167.12307088 195.27095384 167.15543652 220.90651512 C167.1708677 232.811082 167.19188513 244.71558885 167.22631836 256.62011719 C167.25633593 267.00302823 167.2756022 277.38589578 167.28226548 287.76884902 C167.2861569 293.26024428 167.29522314 298.75151516 167.31719017 304.24287033 C167.33775108 309.42535077 167.34379472 314.60765713 167.33932304 319.79017448 C167.34013957 321.67899081 167.34598723 323.56781376 167.35761642 325.45659447 C167.52961229 354.86685915 160.16432117 381.2129021 139.265625 402.828125 C123.49559932 417.70718877 101.61537052 426.34290081 79.94044495 426.26069641 C78.3186231 426.26643473 78.3186231 426.26643473 76.66403717 426.27228898 C73.05795707 426.28256892 69.45203769 426.27863623 65.84594727 426.2746582 C63.25316725 426.27900761 60.66038852 426.28419153 58.06761169 426.29014587 C51.76418165 426.3028676 45.46079425 426.30468948 39.15735353 426.30234561 C34.02709234 426.30055835 28.89684404 426.30232083 23.7665844 426.30657005 C23.03475473 426.30716524 22.30292506 426.30776043 21.54891874 426.30837366 C20.0618337 426.3095855 18.57474867 426.31079964 17.08766364 426.31201603 C3.15225727 426.32288323 -10.78312489 426.3207338 -24.71853263 426.31463119 C-37.43195502 426.30947081 -50.14530058 426.32069565 -62.85870778 426.33972941 C-75.94237044 426.35916566 -89.02599687 426.36735319 -102.10967404 426.36360615 C-109.44308534 426.36170182 -116.77643141 426.36410553 -124.10983086 426.37832069 C-131.01524503 426.39157149 -137.92050421 426.38889625 -144.8259182 426.37590981 C-147.34846805 426.37355745 -149.87102885 426.37623009 -152.39356613 426.38453293 C-180.92629332 426.47161058 -207.99498359 422.93385217 -229.1875 401.97265625 C-241.85007125 388.86219872 -250.30140917 373.86607434 -254 356 C-254.26454546 354.75054722 -254.26454546 354.75054722 -254.53443527 353.47585297 C-255.17983215 348.65739378 -255.14452206 343.90283903 -255.14044189 339.04650879 C-255.14341302 337.94053392 -255.14638414 336.83455905 -255.1494453 335.69506979 C-255.15811985 331.98746074 -255.15963951 328.27988402 -255.16113281 324.57226562 C-255.16576193 321.91432544 -255.17076636 319.25638818 -255.17617798 316.59844971 C-255.18974061 309.37495654 -255.19578313 302.15146894 -255.20018864 294.92796516 C-255.20295523 290.41276559 -255.20719341 285.89756813 -255.21169281 281.38237 C-255.22388404 268.86804591 -255.23418282 256.35372351 -255.2375679 243.83939362 C-255.23778747 243.03893595 -255.23800703 242.23847829 -255.23823325 241.41376433 C-255.23845153 240.61144351 -255.23866981 239.80912268 -255.2388947 238.98248911 C-255.23933816 237.35681566 -255.23978472 235.7311422 -255.24023438 234.10546875 C-255.2404558 233.29908689 -255.24067723 232.49270502 -255.24090537 231.66188735 C-255.24484943 218.60931742 -255.26229212 205.55680345 -255.2855939 192.50425512 C-255.30935363 179.0862281 -255.32177189 165.6682291 -255.32293582 152.25018072 C-255.32385012 144.72346288 -255.32954025 137.19681791 -255.34775543 129.67012024 C-255.36321911 123.25797236 -255.36824026 116.84591988 -255.36001733 110.43375689 C-255.3561325 107.1671689 -255.35859303 103.90081114 -255.37107468 100.6342392 C-255.42821332 84.74222052 -255.15629445 70.15697902 -248.8125 55.3125 C-248.51134277 54.59827881 -248.21018555 53.88405762 -247.89990234 53.14819336 C-245.09309755 46.75972113 -241.49797316 41.34029023 -237 36 C-236.31164062 35.16210938 -235.62328125 34.32421875 -234.9140625 33.4609375 C-217.61946425 13.2943121 -196.97666094 5.22041602 -171 3 C-165.76793298 2.74726773 -160.54433191 2.70842933 -155.30737305 2.71289062 C-153.8268141 2.70684238 -152.34625853 2.69991223 -150.8657074 2.69218445 C-147.71699225 2.67747579 -144.5683385 2.66859258 -141.4195919 2.66447449 C-136.42873908 2.65767034 -131.43801615 2.63581666 -126.44721985 2.61193848 C-114.96181585 2.55919844 -103.47637203 2.52548768 -91.99089813 2.49217987 C-81.43744693 2.46139351 -70.8840527 2.42645589 -60.33067542 2.37586927 C-55.38064835 2.3526937 -50.43071376 2.33882432 -45.48063791 2.33237457 C-42.39349567 2.3263932 -39.30642783 2.31226202 -36.21932411 2.29603004 C-34.80047203 2.29020712 -33.38160156 2.28767063 -31.96273804 2.28886986 C-24.30575233 2.29349269 -17.03551826 1.91085926 -9.51109028 0.43961334 C-6.27272536 -0.12732304 -3.27657771 -0.14893535 0 0 Z " fill="#F8F9F9" transform="translate(311,62)"/>
<path d="M0 0 C0.20326233 7.41936295 0.34311359 14.83800544 0.43945312 22.25952148 C0.47962252 24.78258087 0.53417058 27.30545475 0.60351562 29.82788086 C0.70084761 33.45993833 0.74599414 37.08953023 0.78125 40.72265625 C0.82254028 41.84583755 0.86383057 42.96901886 0.90637207 44.12623596 C0.9107535 51.81648385 0.9107535 51.81648385 -1.69140625 55.19796753 C-3.71289853 56.98392991 -5.76561392 58.49314719 -8 60 C-13.10548432 64.14793659 -17.23922644 68.39123869 -21.1953125 73.6484375 C-27.26603317 81.55877049 -34.43326451 88.55318402 -41.4375 95.625 C-42.24356689 96.44411865 -43.04963379 97.2632373 -43.88012695 98.10717773 C-44.640271 98.86844971 -45.40041504 99.62972168 -46.18359375 100.4140625 C-46.86993896 101.1045166 -47.55628418 101.7949707 -48.26342773 102.50634766 C-50 104 -50 104 -52 104 C-52.35771484 104.83337891 -52.35771484 104.83337891 -52.72265625 105.68359375 C-54.29259847 108.53061436 -56.23920449 110.66928174 -58.4375 113.0625 C-59.21996094 113.91972656 -60.00242187 114.77695312 -60.80859375 115.66015625 C-61.53175781 116.43230469 -62.25492187 117.20445312 -63 118 C-63.54785156 118.59683594 -64.09570312 119.19367188 -64.66015625 119.80859375 C-66 121 -66 121 -68 121 C-68 121.66 -68 122.32 -68 123 C-68.66 123 -69.32 123 -70 123 C-70.3403125 124.0828125 -70.3403125 124.0828125 -70.6875 125.1875 C-72.2733014 128.58564585 -74.30221192 130.39787816 -77 133 C-83.8711076 139.77989821 -90.54242973 146.59313236 -96.6875 154.046875 C-97.22375 154.69140625 -97.76 155.3359375 -98.3125 156 C-99.01826172 156.86625 -99.01826172 156.86625 -99.73828125 157.75 C-101 159 -101 159 -103 159 C-103.226875 159.556875 -103.45375 160.11375 -103.6875 160.6875 C-105.37550036 163.66159588 -107.46676517 165.72008865 -110 168 C-110.66 168 -111.32 168 -112 168 C-112.26772217 168.58845703 -112.53544434 169.17691406 -112.8112793 169.78320312 C-114.01473887 172.02748592 -115.28586495 173.61268576 -117.01953125 175.46875 C-117.92481567 176.44026001 -117.92481567 176.44026001 -118.84838867 177.43139648 C-119.49654541 178.11403564 -120.14470215 178.7966748 -120.8125 179.5 C-121.48321533 180.20906494 -122.15393066 180.91812988 -122.8449707 181.64868164 C-139.31175377 198.90042995 -155.2030993 211.79904886 -178.5 218.5 C-179.84718465 218.8942441 -181.19418841 219.28910685 -182.54101562 219.68457031 C-185.17918909 220.45688782 -187.81904459 221.22292598 -190.4609375 221.98242188 C-193.37203628 222.8194431 -196.28016351 223.66567891 -199.1875 224.515625 C-208.11235639 227.08981993 -217.10900901 229.1900556 -226.17724609 231.19628906 C-232.08790034 232.51855979 -237.83120308 234.092016 -243.59375 235.96484375 C-248.87208727 237.5689256 -254.22587475 238.85570512 -259.58447266 240.16210938 C-263.85297874 241.20450901 -268.0988422 242.29424754 -272.33203125 243.47265625 C-278.36697685 245.13380096 -284.45564683 246.50680541 -290.5625 247.875 C-298.44071438 249.65679023 -306.24463162 251.55445957 -314 253.8125 C-320.01994166 255.56266355 -325.72597351 256.69641807 -332 257 C-332 257.66 -332 258.32 -332 259 C-338.95068039 261.79080349 -345.54508438 262.63419196 -353 263 C-353.86809439 257.79826905 -354.12515348 252.83021184 -354.0625 247.5625 C-354.05798828 246.83095703 -354.05347656 246.09941406 -354.04882812 245.34570312 C-354.03718148 243.56376581 -354.01925191 241.78187137 -354 240 C-354.99 239.67 -355.98 239.34 -357 239 C-341.65828057 234.34623288 -326.28825533 229.94767371 -310.78564453 225.86352539 C-302.74477498 223.74242645 -294.73977203 221.52824047 -286.75268555 219.21386719 C-280.0029802 217.2660932 -273.22521021 215.43542722 -266.4375 213.625 C-256.06848965 210.8556752 -245.7411483 207.95823167 -235.42749023 204.98974609 C-229.65709894 203.32931207 -223.88388407 201.68261921 -218.09765625 200.078125 C-216.98720947 199.77003906 -215.8767627 199.46195313 -214.73266602 199.14453125 C-212.66225824 198.57161575 -210.59118954 198.00108017 -208.51928711 197.43359375 C-203.52220384 196.04956318 -198.60427027 194.54691217 -193.69921875 192.86328125 C-189.56113506 191.45664136 -185.65333042 190.52195168 -181.3125 189.9375 C-176.23510815 188.7889374 -174.07130311 187.49076887 -171.01953125 183.296875 C-167.29221308 178.48815263 -163.34290676 174.14693289 -159.0234375 169.86328125 C-158.40395737 169.24807114 -157.78447723 168.63286102 -157.14622498 167.99900818 C-155.22633735 166.09955291 -153.30122702 164.20552457 -151.375 162.3125 C-148.81689198 159.79120159 -146.2620787 157.26662878 -143.7109375 154.73828125 C-142.80036591 153.8360936 -142.80036591 153.8360936 -141.87139893 152.91567993 C-138.30182672 149.35832082 -134.90592973 145.71813549 -131.64697266 141.87182617 C-127.37926954 137.0214734 -122.62949784 132.59585649 -118.02734375 128.06640625 C-113.70913085 123.78978128 -109.54982081 119.45628431 -105.59082031 114.84472656 C-103.17197407 112.03981524 -100.64860211 109.3354098 -98.125 106.625 C-94.55486427 102.77476645 -91.00352262 98.91120526 -87.5 95 C-84.07376589 91.17795545 -80.60967236 87.39363738 -77.125 83.625 C-76.6194458 83.0781958 -76.1138916 82.5313916 -75.59301758 81.96801758 C-74.56967798 80.86131285 -73.54632185 79.7546234 -72.52294922 78.64794922 C-64.44790585 69.94053503 -64.44790585 69.94053503 -56.5625 61.0625 C-52.93692041 56.87779488 -49.16575147 52.83178912 -45.39819336 48.77539062 C-42.74836983 45.91644678 -40.14543589 43.03712611 -37.625 40.0625 C-34.93061593 36.92781414 -32.03823513 34.05334387 -29.08374023 31.16821289 C-22.62824427 24.85538932 -16.88284004 18.33549906 -11.4140625 11.15625 C-2.88118812 0 -2.88118812 0 0 0 Z " fill="#D1D6D9" transform="translate(478,206)"/>
<path d="M0 0 C3.19987478 1.37532415 4.91472761 2.84345311 7.0625 5.5625 C10.73271402 9.91939922 14.91627997 13.30287001 19.36328125 16.83984375 C22.2165598 19.17741862 24.7669054 21.67371891 27.328125 24.3203125 C30.38865941 27.39514847 33.71271941 30.17256585 37 33 C38.50111215 34.31122788 40.00114686 35.62369046 41.5 36.9375 C42.50546875 37.81728516 42.50546875 37.81728516 43.53125 38.71484375 C44.0159375 39.13894531 44.500625 39.56304687 45 40 C44.42846829 43.5622867 43.17941769 45.13056194 40.5625 47.5625 C38.30473183 49.67886307 36.73987477 51.39018785 35 54 C34.34 54 33.68 54 33 54 C32.60494263 54.88510254 32.60494263 54.88510254 32.2019043 55.78808594 C30.94798348 58.09572815 29.64804739 59.56727394 27.76953125 61.390625 C26.81784058 62.32479248 26.81784058 62.32479248 25.84692383 63.27783203 C24.83988403 64.25405518 24.83988403 64.25405518 23.8125 65.25 C19.30845376 69.68265417 14.88122489 74.0940367 10.79296875 78.91796875 C4.27942711 86.48162386 -2.59912873 93.76562362 -9.76953125 100.70703125 C-11.61150678 102.6006208 -13.31738413 104.52474147 -15.03125 106.53125 C-19.95483406 112.20288696 -25.34517972 117.41574977 -30.6875 122.6875 C-32.73604633 124.70926377 -34.78111319 126.73445857 -36.82421875 128.76171875 C-38.17132935 130.091427 -38.17132935 130.091427 -39.5456543 131.44799805 C-41.86714984 133.86186385 -43.93236595 136.36892652 -46 139 C-47.21834517 140.13899916 -48.46829724 141.24529708 -49.75 142.3125 C-56.21029077 147.84989208 -62.01856679 153.809436 -67.359375 160.43359375 C-69.6741194 162.64362353 -71.84508731 162.95247059 -74.99957275 163.08229065 C-75.70128601 163.06230515 -76.40299927 163.04231964 -77.12597656 163.02172852 C-77.92650452 163.00163223 -78.72703247 162.98153595 -79.55181885 162.96083069 C-80.40612488 162.93379562 -81.26043091 162.90676056 -82.140625 162.87890625 C-83.02280701 162.85529526 -83.90498901 162.83168427 -84.81390381 162.80735779 C-87.62610708 162.73090504 -90.43802214 162.64680169 -93.25 162.5625 C-95.15884016 162.5092609 -97.0676943 162.45652063 -98.9765625 162.40429688 C-103.6512235 162.27531479 -108.32564068 162.13947175 -113 162 C-113.98194948 154.57400704 -114.54425392 147.16367773 -114.88720703 139.68188477 C-114.96253156 138.18305717 -115.05210765 136.68487933 -115.15576172 135.18774414 C-116.0063703 122.76152131 -116.0063703 122.76152131 -113.68359375 118.69580078 C-111.9375 116.97265625 -111.9375 116.97265625 -110.06555176 115.61180115 C-107.97429369 113.97994073 -106.40713898 112.29807888 -104.70507812 110.26928711 C-101.23608697 106.22793891 -97.5710316 102.45780748 -93.78125 98.71875 C-93.11967896 98.06096558 -92.45810791 97.40318115 -91.77648926 96.72546387 C-88.98421856 93.94933442 -86.18594584 91.17928463 -83.38818359 88.40869141 C-81.32959102 86.3683292 -79.27412097 84.32485669 -77.21875 82.28125 C-76.59875122 81.66954956 -75.97875244 81.05784912 -75.33996582 80.4276123 C-71.58688029 76.69527464 -68.04139125 72.8407548 -64.59790039 68.82055664 C-62.03883014 65.90489784 -59.27334647 63.20978364 -56.5 60.5 C-53.04867473 57.09157256 -49.63856398 53.7035055 -46.5 50 C-42.87655616 45.72433627 -38.88651529 41.83181832 -34.88085938 37.91796875 C-32.03550642 35.11778013 -29.3312568 32.26359921 -26.734375 29.23046875 C-21.52282409 23.19702969 -15.73191205 17.72372017 -10.03125 12.15820312 C-9.17015625 11.30806641 -8.3090625 10.45792969 -7.421875 9.58203125 C-6.64424805 8.82124268 -5.86662109 8.0604541 -5.06542969 7.27661133 C-2.98880224 4.98765731 -1.49177415 2.69870635 0 0 Z " fill="#FDEB63" transform="translate(330,160)"/>
<path d="M0 0 C12.38381132 7.95234943 23.83465633 18.06392764 34.125 28.53515625 C36.05781815 30.43399908 38.05676826 32.18838996 40.125 33.9375 C54.72611651 46.63164808 67.56361734 65.92824908 69.30957031 85.57714844 C70.29205362 101.69977021 66.77833695 113.38675417 57.125 126.5 C56.1241521 127.91606777 55.12399407 129.3326238 54.125 130.75 C53.465 131.6575 52.805 132.565 52.125 133.5 C48.63845524 132.0158627 46.48308928 130.03785948 43.875 127.3125 C40.44572415 123.80490463 36.94161022 120.50352305 33.21875 117.3125 C30.05698521 114.57544988 26.98853563 111.73645815 23.91015625 108.90625 C21.63546341 106.94101748 19.33764994 105.14669936 16.9375 103.34375 C11.52569465 99.1690088 6.82778702 94.38560414 2.0625 89.5 C-3.73346512 83.584849 -9.57449258 77.87549241 -15.875 72.5 C-17.54552462 71.00429773 -19.21280832 69.50495734 -20.875 68 C-28.30596675 61.2938257 -28.30596675 61.2938257 -35.92578125 54.8046875 C-36.56902344 54.27101562 -37.21226562 53.73734375 -37.875 53.1875 C-38.4525 52.71699219 -39.03 52.24648437 -39.625 51.76171875 C-40.875 50.5 -40.875 50.5 -40.875 48.5 C-41.43703125 48.2525 -41.9990625 48.005 -42.578125 47.75 C-45.26592569 46.28725133 -47.33905482 44.53195127 -49.625 42.5 C-50.82382812 41.448125 -50.82382812 41.448125 -52.046875 40.375 C-53.875 38.5 -53.875 38.5 -53.875 36.5 C-54.535 36.5 -55.195 36.5 -55.875 36.5 C-57.3203125 35.03125 -57.3203125 35.03125 -59 33 C-62.7365876 28.59475988 -66.74443366 24.53400765 -70.875 20.5 C-66.3833803 9.75392062 -50.90151676 -0.05302726 -40.625 -4.5625 C-26.94630197 -9.27477875 -12.51147727 -6.95539361 0 0 Z " fill="#FD3B69" transform="translate(422.875,40.5)"/>
<path d="M0 0 C3.25301796 1.3931403 5.03386216 2.94960155 7.25 5.6875 C10.26456279 9.2560209 13.47412293 12.26843887 17.03125 15.28515625 C18.94455261 16.95170356 20.72458717 18.68827191 22.5 20.5 C24.87042357 22.91332717 27.30736308 25.17271853 29.875 27.375 C32.8846753 29.96634205 35.71088616 32.67254783 38.5 35.5 C41.82783017 38.8675824 45.24511755 42.03813877 48.8359375 45.12109375 C51.42938894 47.37280881 53.96386976 49.68394718 56.5 52 C59.71693361 54.93700707 62.95133084 57.84271749 66.25 60.6875 C69.35391123 63.38134166 72.24761803 66.22372192 75.125 69.15600586 C76.93839717 70.93941586 78.80662223 72.60722678 80.734375 74.265625 C84.83436211 77.8305035 88.80261782 81.51775138 92.75 85.25 C97.65437446 89.87073556 102.57814333 94.46563112 107.5625 99 C110.75391032 101.90638585 113.86918487 104.84000423 116.875 107.9375 C119.6787105 110.80320901 122.57982019 112.91452451 126 115 C123.61882214 119.38723866 120.64797265 122.77460391 117.25 126.375 C116.71648926 126.94718262 116.18297852 127.51936523 115.63330078 128.10888672 C112.27079698 131.69984089 108.85380583 135.22495261 105.3046875 138.6328125 C103.75984852 140.17266841 103.75984852 140.17266841 102 143 C98.74698204 141.6068597 96.96613784 140.05039845 94.75 137.3125 C91.87090574 133.91928177 88.87075538 131.03854817 85.484375 128.1640625 C82.16419058 125.27195217 78.96097846 122.26233216 75.75 119.25 C71.04958152 114.8424443 66.32935886 110.46060457 61.5625 106.125 C58.22030001 103.07770001 54.96662093 99.99104552 51.8125 96.75 C49.17621304 94.05901829 46.45458943 91.75519816 43.4375 89.5 C39.58232914 86.60362811 36.54549343 83.43395207 33.5078125 79.69921875 C31.91618686 77.76054426 31.91618686 77.76054426 29 76 C29 75.34 29 74.68 29 74 C28.47148437 73.78859375 27.94296875 73.5771875 27.3984375 73.359375 C24.04239497 71.45725318 21.40688419 68.88750744 18.625 66.25 C17.99086182 65.65453369 17.35672363 65.05906738 16.70336914 64.44555664 C9.51417676 57.63684367 2.54464738 50.60106363 -4.40966797 43.55371094 C-8.78803292 39.13367722 -13.13184544 34.87496074 -18 31 C-20.875 28.375 -20.875 28.375 -23 26 C-23 23 -23 23 -21.71484375 21.67578125 C-21.12832031 21.22589844 -20.54179687 20.77601562 -19.9375 20.3125 C-17.17830694 18.07411848 -14.84950932 15.78161707 -12.5625 13.0625 C-9.52267751 9.47123578 -6.21811021 6.447466 -2.6015625 3.4453125 C-0.88412185 2.07190983 -0.88412185 2.07190983 0 0 Z " fill="#F7FBFC" transform="translate(330,77)"/>
<path d="M0 0 C3.20894988 1.36158001 4.75167711 2.68492543 6.6875 5.5625 C12.00145611 12.9429946 18.42188832 19.00167102 26 24 C20.99100226 30.00923442 15.59058141 35.4765562 10.00976562 40.95117188 C9.00139648 41.94793945 9.00139648 41.94793945 7.97265625 42.96484375 C7.07945679 43.84064087 7.07945679 43.84064087 6.16821289 44.73413086 C4.31397411 46.67188451 2.56539671 48.64947706 0.81665039 50.68115234 C-3.26580842 55.37440979 -7.62799774 59.75406759 -12.0390625 64.13671875 C-12.88294525 64.97918655 -13.726828 65.82165436 -14.59628296 66.68965149 C-17.27016272 69.35797903 -19.94750829 72.02279732 -22.625 74.6875 C-24.42991988 76.48739721 -26.23460954 78.28752532 -28.0390625 80.08789062 C-31.34574658 83.38643997 -34.65371917 86.68368442 -37.96337891 89.97924805 C-38.66757965 90.68075989 -39.3717804 91.38227173 -40.09732056 92.1050415 C-41.25214101 93.25517577 -42.40742732 94.40484288 -43.56356812 95.5536499 C-46.59859825 98.57502986 -49.49643688 101.70558361 -52.375 104.875 C-57.6735943 110.671573 -63.18720131 116.2234226 -68.76733398 121.74780273 C-72.49342341 125.45067967 -76.05498432 129.22106766 -79.45703125 133.2265625 C-87.32300914 142.26745861 -93.22631365 146.20580626 -105.0625 148.1875 C-106.55233398 148.45336914 -106.55233398 148.45336914 -108.07226562 148.72460938 C-112.14041816 149.43413901 -115.85617242 150 -120 150 C-120.63312782 146.69843259 -121.13868872 143.38860149 -121.625 140.0625 C-121.80417969 139.13630859 -121.98335937 138.21011719 -122.16796875 137.25585938 C-122.57037068 134.23784492 -122.66481297 131.97872161 -122 129 C-119.15624752 125.38629348 -115.60571338 122.82048124 -112 120 C-110.19983152 118.29599997 -108.42504585 116.56481015 -106.67578125 114.80859375 C-105.79212891 113.92623047 -104.90847656 113.04386719 -103.99804688 112.13476562 C-103.11181641 111.24466797 -102.22558594 110.35457031 -101.3125 109.4375 C-100.41466797 108.54353516 -99.51683594 107.64957031 -98.59179688 106.72851562 C-92.97269589 101.10118153 -87.52340975 95.38716398 -82.54101562 89.18334961 C-81.39621671 87.75957823 -80.20304476 86.3749083 -79 85 C-78.34 85 -77.68 85 -77 85 C-76.73574219 84.40703125 -76.47148437 83.8140625 -76.19921875 83.203125 C-74.95629575 80.91970946 -73.69598354 79.52573277 -71.8125 77.75 C-69.30476276 75.31966206 -66.95303763 72.84494342 -64.6875 70.1875 C-61.97106819 67.0274451 -59.10583885 64.0992313 -56.125 61.1875 C-52.7314232 57.83985131 -49.64685619 54.42334781 -46.6875 50.6875 C-42.7005955 45.68793592 -38.36405926 41.21005277 -33.7800293 36.76635742 C-30.9652903 34.02519492 -28.30164027 31.23188593 -25.74609375 28.24609375 C-20.50509448 22.17485871 -14.67757451 16.669845 -8.94335938 11.0703125 C-8.07904297 10.21695313 -7.21472656 9.36359375 -6.32421875 8.484375 C-5.54135498 7.71834961 -4.75849121 6.95232422 -3.9519043 6.16308594 C-2.14725893 4.16319126 -1.04542076 2.46368144 0 0 Z " fill="#FBDD21" transform="translate(290,120)"/>
<path d="M0 0 C0.4107769 4.44319172 0.81961059 8.88655715 1.22680664 13.33007812 C1.36497197 14.83500753 1.50362673 16.3398921 1.64282227 17.84472656 C1.84527047 20.03438296 2.04600313 22.22418949 2.24609375 24.4140625 C2.3126265 25.1356958 2.37915924 25.8573291 2.44770813 26.60083008 C2.76227623 30.07985389 3.04590511 33.55576012 3.25268555 37.04296875 C3.32656494 38.27917969 3.40044434 39.51539063 3.4765625 40.7890625 C3.56091553 42.42029053 3.56091553 42.42029053 3.64697266 44.08447266 C4.27338154 49.25776094 6.29065745 53.29065745 10 57 C11.93402187 57.29344033 11.93402187 57.29344033 14.1484375 57.23046875 C14.98310547 57.22917969 15.81777344 57.22789062 16.67773438 57.2265625 C17.56783203 57.21367187 18.45792969 57.20078125 19.375 57.1875 C20.7372168 57.17783203 20.7372168 57.17783203 22.12695312 57.16796875 C27.8624003 57.10256094 33.526345 56.80161358 39.234375 56.22265625 C44.15053898 55.82686339 49.0718886 55.92135992 54 56 C55.03851785 59.11555355 55.16956464 61.42856574 55.24609375 64.69921875 C55.27896484 65.82650391 55.31183594 66.95378906 55.34570312 68.11523438 C55.40639696 70.47712857 55.46374573 72.83911134 55.51757812 75.20117188 C55.61664381 86.94153199 55.61664381 86.94153199 61 97 C49.76582359 101.09948894 38.2650296 104.14278245 26.70068359 107.14453125 C21.33814413 108.54411602 16.01510013 109.93566701 10.7734375 111.7421875 C7 113 7 113 4 113 C3.95875 111.72125 3.9175 110.4425 3.875 109.125 C2.17863056 95.0032752 -11.43849529 84.61524398 -21.875 76.1875 C-29.14917081 70.47447581 -37.19896002 65.93367999 -46 63 C-45.86948242 62.37883301 -45.73896484 61.75766602 -45.60449219 61.11767578 C-42.8145394 47.74691253 -40.30090666 34.39166711 -38.43261719 20.85791016 C-37.49971131 14.34928853 -36.0879482 8.23707603 -34 2 C-32.71029297 2.03480469 -32.71029297 2.03480469 -31.39453125 2.0703125 C-24.08185707 2.18195638 -17.22835027 1.77404186 -10.03515625 0.4375 C-6.6564166 -0.04952554 -3.4096619 -0.02816448 0 0 Z " fill="#F7FBFC" transform="translate(192,287)"/>
<path d="M0 0 C1.17334963 1.44111404 2.28769269 2.93040948 3.375 4.4375 C8.11772629 10.57154268 13.66152822 14.62645447 20 19 C18.58847053 28.43439413 5.86078415 37.23267095 -0.625 43.625 C-6.10281043 49.02455599 -11.51622455 54.40160915 -16.49169922 60.27294922 C-18.08745656 62.10014045 -19.76782398 63.80231028 -21.5 65.5 C-23.93389732 67.89053167 -26.21355559 70.35046262 -28.4375 72.9375 C-31.40605556 76.38421216 -34.54079104 79.59110859 -37.8125 82.75 C-39.65848632 84.64872879 -41.37262662 86.58407937 -43.09375 88.59375 C-48.48001405 94.79541863 -54.41593523 100.45955708 -60.26171875 106.22265625 C-64.84867744 110.76990101 -69.30530484 115.35058038 -73.50683594 120.25732422 C-75.56958207 122.66476076 -77.72394175 124.98399755 -79.875 127.3125 C-88.26078212 136.14394824 -88.26078212 136.14394824 -95.14697266 146.09423828 C-96.58990588 148.51735804 -97.80967458 150.21003646 -100 152 C-104.33024156 152.98104694 -108.46369574 152.75890273 -112.875 152.5 C-114.0403125 152.46390625 -115.205625 152.4278125 -116.40625 152.390625 C-119.27422052 152.29659318 -122.1354014 152.16532645 -125 152 C-124.865874 148.32937336 -124.65801681 144.66637042 -124.4375 141 C-124.40076172 139.97003906 -124.36402344 138.94007813 -124.32617188 137.87890625 C-123.80589211 130.09948506 -121.7038635 126.22990349 -116 121 C-115.2059375 120.1853125 -114.411875 119.370625 -113.59375 118.53125 C-112.19791667 117.17708333 -110.80208333 115.82291667 -109.40625 114.46875 C-107.44346299 112.4549815 -105.61214882 110.41167375 -103.78125 108.28125 C-99.03024488 102.80560178 -93.83801602 97.7903983 -88.671875 92.7109375 C-85.158686 89.23359736 -81.72274736 85.74997101 -78.5 82 C-73.86197988 76.60322543 -68.74247097 71.69645636 -63.671875 66.7109375 C-59.47310199 62.55500911 -55.44634605 58.32937009 -51.59521484 53.84912109 C-49.23215859 51.10994325 -46.77504836 48.46202356 -44.3125 45.8125 C-43.80630127 45.2656958 -43.30010254 44.7188916 -42.77856445 44.15551758 C-40.65314262 41.85966871 -38.52519792 39.56616399 -36.39746094 37.27246094 C-34.82658041 35.57829856 -33.25666146 33.88325468 -31.6875 32.1875 C-30.93170654 31.37091919 -30.93170654 31.37091919 -30.16064453 30.5378418 C-27.45532551 27.6061081 -24.79410709 24.64470776 -22.1875 21.625 C-19.51446076 18.53126451 -16.68169087 15.66039914 -13.765625 12.796875 C-11.24751953 10.23420129 -8.91377295 7.52543569 -6.578125 4.796875 C-2.36521739 0 -2.36521739 0 0 0 Z " fill="#F78F04" transform="translate(395,217)"/>
<path d="M0 0 C5.19895961 3.65033334 9.75278845 7.5716193 14.140625 12.16796875 C15.98339977 13.98364389 17.89757552 15.49760375 20 17 C19.42846829 20.5622867 18.17941769 22.13056194 15.5625 24.5625 C13.30473183 26.67886307 11.73987477 28.39018785 10 31 C9.34 31 8.68 31 8 31 C7.60494263 31.88510254 7.60494263 31.88510254 7.2019043 32.78808594 C5.94798348 35.09572815 4.64804739 36.56727394 2.76953125 38.390625 C1.81784058 39.32479248 1.81784058 39.32479248 0.84692383 40.27783203 C0.17556396 40.92864746 -0.4957959 41.57946289 -1.1875 42.25 C-5.69154624 46.68265417 -10.11877511 51.0940367 -14.20703125 55.91796875 C-20.72057289 63.48162386 -27.59912873 70.76562362 -34.76953125 77.70703125 C-36.61150678 79.6006208 -38.31738413 81.52474147 -40.03125 83.53125 C-44.95483406 89.20288696 -50.34517972 94.41574977 -55.6875 99.6875 C-57.73604633 101.70926377 -59.78111319 103.73445857 -61.82421875 105.76171875 C-63.17132935 107.091427 -63.17132935 107.091427 -64.5456543 108.44799805 C-66.86714984 110.86186385 -68.93236595 113.36892652 -71 116 C-72.21834517 117.13899916 -73.46829724 118.24529708 -74.75 119.3125 C-81.21029077 124.84989208 -87.01856679 130.809436 -92.359375 137.43359375 C-95.20730445 140.15268829 -97.77609359 139.99867326 -101.66699219 140.02172852 C-103.12712825 139.97983489 -104.58709907 139.93188406 -106.046875 139.87890625 C-106.81807678 139.85529526 -107.58927856 139.83168427 -108.3838501 139.80735779 C-110.83943264 139.73097661 -113.2946793 139.64684308 -115.75 139.5625 C-117.41795249 139.5092537 -119.08592121 139.45651348 -120.75390625 139.40429688 C-124.83614894 139.27539622 -128.91810783 139.13954376 -133 139 C-132.05649448 137.87239125 -131.10912937 136.74801121 -130.16015625 135.625 C-129.63301025 134.99851562 -129.10586426 134.37203125 -128.56274414 133.7265625 C-127 132 -127 132 -124.4375 130 C-122.1864884 128.15301612 -120.93405989 126.62070159 -119.3125 124.25 C-118.549375 123.1775 -117.78625 122.105 -117 121 C-116.34 121 -115.68 121 -115 121 C-114.66162109 120.16662109 -114.66162109 120.16662109 -114.31640625 119.31640625 C-112.61105586 116.31559681 -110.43293684 114.32062463 -107.9375 111.9375 C-104.23262472 108.33899634 -100.83128458 104.68788008 -97.625 100.625 C-93.6209181 95.59109128 -89.23545175 91.1209952 -84.65454102 86.62329102 C-81.83910091 83.854053 -79.1121332 81.08333123 -76.5625 78.0625 C-72.68800177 73.4888442 -68.37922528 69.35447713 -64.12231445 65.1418457 C-60.48272295 61.52561924 -57.01843968 57.83997417 -53.703125 53.921875 C-50.76499906 50.60637509 -47.56042431 47.55366203 -44.41015625 44.44140625 C-41.73145468 41.72797273 -39.25391882 38.89222977 -36.77734375 35.99609375 C-34.04589387 32.92846542 -31.09728944 30.08826997 -28.171875 27.20703125 C-26.25947708 25.26367725 -24.49795836 23.2772621 -22.75 21.1875 C-16.02460894 13.34383548 -7.96390194 6.55075844 0 0 Z " fill="#F6B303" transform="translate(355,183)"/>
<path d="M0 0 C6.28385053 5.26089812 12.27341358 10.82998464 18.27832031 16.40332031 C20.47874614 18.44398749 22.68385457 20.4795428 24.88964844 22.5144043 C25.96354067 23.50510081 27.0371083 24.49614931 28.11035156 25.48754883 C30.88970184 28.05487918 33.67252147 30.61829805 36.4609375 33.17578125 C37.59916207 34.22113238 38.7371861 35.2667019 39.875 36.3125 C40.42164307 36.81458984 40.96828613 37.31667969 41.53149414 37.83398438 C44.40857247 40.48879725 47.21177924 43.1904109 49.9375 46 C52.71723057 48.84227451 55.60818185 50.9318182 59 53 C56.61882214 57.38723866 53.64797265 60.77460391 50.25 64.375 C49.71648926 64.94718262 49.18297852 65.51936523 48.63330078 66.10888672 C45.27079698 69.69984089 41.85380583 73.22495261 38.3046875 76.6328125 C36.75984852 78.17266841 36.75984852 78.17266841 35 81 C31.74698204 79.6068597 29.96613784 78.05039845 27.75 75.3125 C24.87090574 71.91928177 21.87075538 69.03854817 18.484375 66.1640625 C15.16419058 63.27195217 11.96097846 60.26233216 8.75 57.25 C4.0495717 52.8424351 -0.67119556 48.46122144 -5.4375 44.125 C-10.09101202 39.87286907 -14.59137171 35.5042371 -19 31 C-19.99931416 29.99931463 -20.99921421 28.9992136 -22 28 C-17.34729409 21.36625487 -12.02291611 15.90797539 -6.12695312 10.38085938 C-5.48048828 9.75630859 -4.83402344 9.13175781 -4.16796875 8.48828125 C-3.58297607 7.93696533 -2.9979834 7.38564941 -2.39526367 6.81762695 C-0.68687972 4.5920944 -0.3642287 2.7521792 0 0 Z " fill="#88929C" transform="translate(397,139)"/>
<path d="M0 0 C2.50605339 2.50605339 3.24018469 4.8141439 4.5 8.125 C5.13421875 9.76855469 5.13421875 9.76855469 5.78125 11.4453125 C10.51305446 25.24640884 11.24426967 40.50263714 5 54 C2.56614403 58.18684201 -0.13056207 62.10211005 -3 66 C-4.0008479 67.41606777 -5.00100593 68.8326238 -6 70.25 C-6.66 71.1575 -7.32 72.065 -8 73 C-11.48654476 71.5158627 -13.64191072 69.53785948 -16.25 66.8125 C-19.67798467 63.30622531 -23.18034513 60.0056337 -26.90234375 56.81640625 C-29.30863059 54.73275005 -31.65110148 52.58557666 -34 50.4375 C-38.15220199 46.68380656 -42.44229682 43.24640869 -47 40 C-46.01 39.505 -46.01 39.505 -45 39 C-44.01 39.66 -43.02 40.32 -42 41 C-41.773125 40.4225 -41.54625 39.845 -41.3125 39.25 C-39.65151778 36.40260191 -37.68475439 34.87932807 -35 33 C-34.34 33 -33.68 33 -33 33 C-33 32.34 -33 31.68 -33 31 C-32.34 31 -31.68 31 -31 31 C-31 30.34 -31 29.68 -31 29 C-29.63671875 27.625 -29.63671875 27.625 -27.6875 26 C-23.09976372 22.1180693 -18.70985957 18.04361528 -14.3203125 13.94140625 C-12 12 -12 12 -10 12 C-10 11.34 -10 10.68 -10 10 C-8.34614767 8.65080468 -6.678298 7.31866272 -5 6 C-4.34 5.01 -3.68 4.02 -3 3 C-2.34 3 -1.68 3 -1 3 C-0.67 2.01 -0.34 1.02 0 0 Z " fill="#D52663" transform="translate(483,101)"/>
<path d="M0 0 C3.96 0 7.92 0 12 0 C13.03851785 3.11555355 13.16956464 5.42856574 13.24609375 8.69921875 C13.27896484 9.82650391 13.31183594 10.95378906 13.34570312 12.11523438 C13.40639696 14.47712857 13.46374573 16.83911134 13.51757812 19.20117188 C13.61664381 30.94153199 13.61664381 30.94153199 19 41 C7.76582359 45.09948894 -3.7349704 48.14278245 -15.29931641 51.14453125 C-20.66185587 52.54411602 -25.98489987 53.93566701 -31.2265625 55.7421875 C-35 57 -35 57 -38 57 C-38.33 53.7 -38.66 50.4 -39 47 C-37.515 46.505 -37.515 46.505 -36 46 C-36 45.34 -36 44.68 -36 44 C-35.01 44 -34.02 44 -33 44 C-32.72414062 43.40832031 -32.44828125 42.81664062 -32.1640625 42.20703125 C-29.11382524 36.42386329 -24.18453578 32.18439223 -19.26171875 28.01171875 C-16.59374273 25.63864854 -14.12138809 23.11522407 -11.625 20.5625 C-8.08758118 16.96595997 -4.51358062 13.74156572 -0.5 10.6875 C3.31119054 7.75348823 5.41123589 5.53932602 7 1 C4.69 1 2.38 1 0 1 C0 0.67 0 0.34 0 0 Z " fill="#BFC8CD" transform="translate(234,343)"/>
<path d="M0 0 C5.58158887 2.79573389 9.00056094 6.76824384 11.625 12.375 C13.12233348 19.71193406 12.48919003 24.51472971 8.94921875 31.09765625 C5.53010061 35.80582122 0.70605123 38.61881626 -4.75 40.4375 C-12.21205689 41.41836938 -17.39637984 40.3700017 -23.6484375 36.15234375 C-27.18845726 33.26374027 -29.16338018 30.34401442 -30.5 26 C-31.15504408 19.28579817 -30.88571724 13.49915057 -27.75 7.4375 C-20.41685991 -1.09931207 -10.59114291 -4.14358374 0 0 Z " fill="#12191E" transform="translate(141.75,134.5625)"/>
<path d="M0 0 C5.11990218 4.28642973 10.03375743 8.76849918 14.92919922 13.30664062 C20.25278513 18.24152027 25.6199896 23.12672405 31 28 C30.24976563 28.73734375 29.49953125 29.4746875 28.7265625 30.234375 C25.85919647 33.14282077 23.25609824 36.18949261 20.6484375 39.328125 C19 41 19 41 16 42 C14.1751107 44.20975932 12.56196281 46.52716249 10.9140625 48.87109375 C8.76259944 51.26404757 7.03804681 52.04473786 4 53 C1.477279 50.6478496 -1.04281698 48.29290413 -3.5625 45.9375 C-4.26697266 45.28072266 -4.97144531 44.62394531 -5.69726562 43.94726562 C-10.22051588 39.71583796 -14.64553485 35.40457247 -19 31 C-19.99942487 29.9994252 -20.99924995 28.99924939 -22 28 C-17.34729409 21.36625487 -12.02291611 15.90797539 -6.12695312 10.38085938 C-5.48048828 9.75630859 -4.83402344 9.13175781 -4.16796875 8.48828125 C-3.58297607 7.93696533 -2.9979834 7.38564941 -2.39526367 6.81762695 C-0.68687972 4.5920944 -0.3642287 2.7521792 0 0 Z " fill="#B5BBC1" transform="translate(397,139)"/>
<path d="M0 0 C5.41740668 3.14209587 9.06656632 6.8538762 11.125 12.8125 C12.02311091 19.80986963 11.81585767 25.41825138 7.54296875 31.19921875 C2.7867801 36.6105298 -2.63272795 39.45224755 -9.8125 40.25 C-15.06398448 40.0159222 -19.52641304 37.9785543 -23.3828125 34.421875 C-28.2593092 28.87376498 -30.56082801 23.75290862 -30.2734375 16.40234375 C-29.40140604 10.73413926 -27.01179147 6.67642781 -22.703125 2.91796875 C-15.61063417 -1.90447326 -8.12463359 -3.03131665 0 0 Z " fill="#11181D" transform="translate(408.875,394.1875)"/>
<path d="M0 0 C1.32 1.32 2.64 2.64 4 4 C3.10539062 3.91363281 2.21078125 3.82726562 1.2890625 3.73828125 C-2.84928799 4.06757992 -3.84970978 5.18175282 -6.625 8.1875 C-7.39457031 9.00734375 -8.16414063 9.8271875 -8.95703125 10.671875 C-10.45943706 12.38398564 -11.90352141 14.14771638 -13.3125 15.9375 C-15 18 -15 18 -17.125 19 C-19.24977696 19.86618443 -19.24977696 19.86618443 -19.875 22.375 C-21.42009366 25.98021853 -23.71542725 26.93909161 -27 29 C-31.06962133 32.56091867 -33.76935239 36.53699687 -36.5703125 41.109375 C-38 43 -38 43 -41 44 C-42.7469369 45.76125389 -42.7469369 45.76125389 -44.4375 47.875 C-46.21563947 50.03104383 -47.75217366 51.82400049 -50.03515625 53.4453125 C-52.43323836 55.34280093 -53.47163051 57.36151046 -55 60 C-56.43661319 61.76467955 -57.91795505 63.49370706 -59.4375 65.1875 C-60.19933594 66.04730469 -60.96117187 66.90710938 -61.74609375 67.79296875 C-64 70 -64 70 -66.0078125 70.97265625 C-68.91547736 72.47209911 -70.42399384 74.69560397 -72.4375 77.25 C-73.22640625 78.24 -74.0153125 79.23 -74.828125 80.25 C-75.54484375 81.1575 -76.2615625 82.065 -77 83 C-78.65005497 85.01480396 -80.32379078 87.00667012 -82 89 C-82.43441406 89.52722656 -82.86882812 90.05445313 -83.31640625 90.59765625 C-86.95538225 94.9505458 -90.88218489 98.9320727 -94.94921875 102.88671875 C-97.03733004 104.93779827 -97.03733004 104.93779827 -98.64453125 107.26953125 C-99.09183594 107.84058594 -99.53914062 108.41164063 -100 109 C-100.66 109 -101.32 109 -102 109 C-102 109.66 -102 110.32 -102 111 C-103.75 112.7265625 -103.75 112.7265625 -106 114.625 C-106.7425 115.25664062 -107.485 115.88828125 -108.25 116.5390625 C-108.8275 117.02117187 -109.405 117.50328125 -110 118 C-110.33 117.01 -110.66 116.02 -111 115 C-110.45472656 114.47792969 -109.90945312 113.95585937 -109.34765625 113.41796875 C-105.2073325 109.37672967 -101.34227987 105.288669 -97.75 100.75 C-93.6975708 95.68090873 -89.27707962 91.16185198 -84.6550293 86.6237793 C-81.83943079 83.85437195 -79.11228278 81.08350846 -76.5625 78.0625 C-72.68800177 73.4888442 -68.37922528 69.35447713 -64.12231445 65.1418457 C-60.48272295 61.52561924 -57.01843968 57.83997417 -53.703125 53.921875 C-50.76499906 50.60637509 -47.56042431 47.55366203 -44.41015625 44.44140625 C-41.73145468 41.72797273 -39.25391882 38.89222977 -36.77734375 35.99609375 C-34.04589387 32.92846542 -31.09728944 30.08826997 -28.171875 27.20703125 C-26.25947708 25.26367725 -24.49795836 23.2772621 -22.75 21.1875 C-16.02460894 13.34383548 -7.96390194 6.55075844 0 0 Z " fill="#E7A70A" transform="translate(355,183)"/>
<path d="M0 0 C13.18147216 8.46457281 25.21287969 19.32668532 36.125 30.5 C35.135 30.995 35.135 30.995 34.125 31.5 C33.444375 30.819375 32.76375 30.13875 32.0625 29.4375 C31.61003906 28.98761719 31.15757812 28.53773437 30.69140625 28.07421875 C29.56393805 26.94112727 28.44809091 25.79642928 27.33984375 24.64453125 C26.73269531 24.01933594 26.12554687 23.39414062 25.5 22.75 C24.93023437 22.15703125 24.36046875 21.5640625 23.7734375 20.953125 C22.07708885 19.2672981 22.07708885 19.2672981 19.125 18.5 C17.45833333 16.83333333 15.79166667 15.16666667 14.125 13.5 C12.86901243 12.58346853 11.59775721 11.6875135 10.3125 10.8125 C9.260625 10.049375 8.20875 9.28625 7.125 8.5 C7.125 7.84 7.125 7.18 7.125 6.5 C6.0421875 6.0978125 6.0421875 6.0978125 4.9375 5.6875 C2.125 4.5 2.125 4.5 -0.2109375 3.0625 C-12.27655867 -4.01411066 -24.97542791 -3.37431498 -38.3515625 -1.23046875 C-41.13491139 -0.42476249 -42.6394032 0.68663321 -44.875 2.5 C-46.47273416 3.40725608 -48.07731398 4.30253162 -49.6875 5.1875 C-54.83711605 8.22873127 -58.1696895 11.88064738 -61.875 16.5 C-63.19135024 17.85010281 -64.51473902 19.19414946 -65.875 20.5 C-65.215 22.15 -64.555 23.8 -63.875 25.5 C-63.215 25.5 -62.555 25.5 -61.875 25.5 C-61.215 27.15 -60.555 28.8 -59.875 30.5 C-63.68135497 27.29239749 -67.42063567 24.09253891 -70.875 20.5 C-66.3833803 9.75392062 -50.90151676 -0.05302726 -40.625 -4.5625 C-26.94630197 -9.27477875 -12.51147727 -6.95539361 0 0 Z " fill="#CA5A6C" transform="translate(422.875,40.5)"/>
<path d="M0 0 C-0.86131342 4.52950963 -3.50967945 7.02660932 -6.625 10.25 C-7.72607923 11.41328802 -8.82634359 12.57734789 -9.92578125 13.7421875 C-10.45768066 14.30260742 -10.98958008 14.86302734 -11.53759766 15.44042969 C-13.35012659 17.37339043 -15.0884647 19.36296796 -16.8125 21.375 C-20.03356749 25.10009761 -23.480419 28.5588255 -27 32 C-27.52078125 32.56074219 -28.0415625 33.12148438 -28.578125 33.69921875 C-30 35 -30 35 -32 35 C-32.66 33.35 -33.32 31.7 -34 30 C-32.88121617 28.82737096 -31.75476949 27.66204862 -30.625 26.5 C-29.99851563 25.8503125 -29.37203125 25.200625 -28.7265625 24.53125 C-27 23 -27 23 -25 23 C-25 22.01 -25 21.02 -25 20 C-23.6015625 18.81640625 -23.6015625 18.81640625 -21.625 17.5625 C-17.10830748 14.3822976 -13.80911474 10.43518137 -10.41455078 6.13891602 C-7.12427593 1.99798152 -5.5278013 0 0 0 Z " fill="#FDF280" transform="translate(268,270)"/>
<path d="M0 0 C-3.84631387 8.3094894 -11.43593322 14.48812484 -17.85742188 20.83618164 C-21.67890031 24.62835111 -25.33113852 28.49305146 -28.765625 32.64453125 C-30 34 -30 34 -32 35 C-32 34.34 -32 33.68 -32 33 C-34.64 33.99 -37.28 34.98 -40 36 C-40 35.34 -40 34.68 -40 34 C-34.25 31 -34.25 31 -32 31 C-32 29.68 -32 28.36 -32 27 C-29.875 24.5625 -29.875 24.5625 -27 22 C-26.47277344 21.52820313 -25.94554687 21.05640625 -25.40234375 20.5703125 C-21.29749294 17 -21.29749294 17 -19 17 C-18.731875 16.360625 -18.46375 15.72125 -18.1875 15.0625 C-17 13 -17 13 -14 12 C-13.29605388 10.68596724 -12.63654342 9.3479743 -12 8 C-8.8233041 3.50880924 -5.76907089 0 0 0 Z " fill="#FEED71" transform="translate(300,237)"/>
<path d="M0 0 C3.19987478 1.37532415 4.91472761 2.84345311 7.0625 5.5625 C10.77851823 9.97980584 15.02584089 13.45195545 19.546875 17.01953125 C23.37637166 20.11117903 23.37637166 20.11117903 25 22 C25 22.66 25 23.32 25 24 C22.5 25.625 22.5 25.625 20 27 C20 24.69 20 22.38 20 20 C19.42507813 19.74347656 18.85015625 19.48695313 18.2578125 19.22265625 C15.78504717 17.88359821 13.95153746 16.32849133 11.875 14.4375 C9.13961955 11.92320784 9.13961955 11.92320784 6 10 C6 9.34 6 8.68 6 8 C5.34 8 4.68 8 4 8 C3.67 7.34 3.34 6.68 3 6 C-0.43338516 7.20632452 -2.50364585 8.38477184 -5 11 C-5.66 11 -6.32 11 -7 11 C-7.185625 11.70125 -7.37125 12.4025 -7.5625 13.125 C-9.28153694 16.56307388 -11.35759634 18.22947171 -14.34375 20.5703125 C-16.2526135 22.08924941 -16.2526135 22.08924941 -18 25 C-19.32 24.67 -20.64 24.34 -22 24 C-21.44014404 23.45061768 -20.88028809 22.90123535 -20.3034668 22.33520508 C-17.75952526 19.83294588 -15.22347054 17.32283618 -12.6875 14.8125 C-11.80642578 13.94818359 -10.92535156 13.08386719 -10.01757812 12.19335938 C-8.74624023 10.93168945 -8.74624023 10.93168945 -7.44921875 9.64453125 C-6.27879028 8.48981323 -6.27879028 8.48981323 -5.0847168 7.31176758 C-3.00679405 5.007534 -1.49809691 2.70914587 0 0 Z " fill="#F4EB90" transform="translate(330,160)"/>
<path d="M0 0 C1 3 1 3 0.375 5 C-1 7 -1 7 -3.1875 8.25 C-7.936286 11.20480018 -11.16421541 15.71401109 -14.640625 20.04296875 C-15.15109375 20.66816406 -15.6615625 21.29335937 -16.1875 21.9375 C-16.85845703 22.78634766 -16.85845703 22.78634766 -17.54296875 23.65234375 C-19.29481505 25.27268417 -20.67482523 25.60666208 -23 26 C-23.09796875 26.74121094 -23.1959375 27.48242188 -23.296875 28.24609375 C-24.85974778 34.36734547 -30.92990868 39.52336595 -36 43 C-36.66 43 -37.32 43 -38 43 C-38.309375 43.928125 -38.309375 43.928125 -38.625 44.875 C-40.54775888 47.84653645 -42.66594527 48.13024659 -46 49 C-42.1172398 44.22975175 -37.9312853 39.88171747 -33.5625 35.5625 C-30.09247881 32.13119052 -26.65696796 28.72664639 -23.5 25 C-19.84411792 20.68605915 -15.80419448 16.77793211 -11.78637695 12.8059082 C-7.65497162 8.70344019 -3.72255552 4.48060319 0 0 Z " fill="#EFE393" transform="translate(307,185)"/>
<path d="M0 0 C0.66 0 1.32 0 2 0 C0.64763423 2.93879484 -0.89942659 5.29232911 -3 7.75 C-3.515625 8.36359375 -4.03125 8.9771875 -4.5625 9.609375 C-6 11 -6 11 -8 11 C-8.2371875 11.57621094 -8.474375 12.15242188 -8.71875 12.74609375 C-10.27643991 15.48629826 -12.09539679 17.02695773 -14.5 19.0625 C-19.40484441 23.34710972 -23.68214812 27.92902951 -27.96875 32.8125 C-30 35 -30 35 -32 36 C-33.13350534 38.01669827 -33.13350534 38.01669827 -34 40 C-35.32 40 -36.64 40 -38 40 C-37.7312159 36.05783322 -37.44655191 34.43510186 -34.5625 31.625 C-32 30 -32 30 -30 30 C-30 29.34 -30 28.68 -30 28 C-29.34 28 -28.68 28 -28 28 C-28 27.34 -28 26.68 -28 26 C-26.63671875 24.625 -26.63671875 24.625 -24.6875 23 C-20.09976372 19.1180693 -15.70985957 15.04361528 -11.3203125 10.94140625 C-9 9 -9 9 -7 9 C-7 8.34 -7 7.68 -7 7 C-5.34614767 5.65080468 -3.678298 4.31866272 -2 3 C-1.34 2.01 -0.68 1.02 0 0 Z " fill="#E41C5A" transform="translate(480,104)"/>
<path d="M0 0 C5.64699981 3.44103731 10.72188841 7.45949377 15.76611328 11.72167969 C17.96849046 13.55984122 20.25219792 15.28836182 22.52734375 17.03515625 C28.23219282 21.59144169 33.27262369 26.79453322 38.33984375 32.03515625 C37.34984375 32.53015625 37.34984375 32.53015625 36.33984375 33.03515625 C35.65921875 32.35453125 34.97859375 31.67390625 34.27734375 30.97265625 C33.82488281 30.52277344 33.37242187 30.07289062 32.90625 29.609375 C31.7787818 28.47628352 30.66293466 27.33158553 29.5546875 26.1796875 C28.94753906 25.55449219 28.34039062 24.92929687 27.71484375 24.28515625 C27.14507812 23.6921875 26.5753125 23.09921875 25.98828125 22.48828125 C24.2919326 20.80245435 24.2919326 20.80245435 21.33984375 20.03515625 C19.67317708 18.36848958 18.00651042 16.70182292 16.33984375 15.03515625 C15.08385618 14.11862478 13.81260096 13.22266975 12.52734375 12.34765625 C11.47546875 11.58453125 10.42359375 10.82140625 9.33984375 10.03515625 C9.33984375 9.37515625 9.33984375 8.71515625 9.33984375 8.03515625 C8.61796875 7.76703125 7.89609375 7.49890625 7.15234375 7.22265625 C4.33984375 6.03515625 4.33984375 6.03515625 1.98828125 4.59765625 C-6.62000369 -0.48097793 -14.91765602 -1.3865166 -24.69213867 -0.99291992 C-26.6801638 -0.92002208 -28.67101103 -0.93553003 -30.66015625 -0.96484375 C-31.32015625 -1.62484375 -31.98015625 -2.28484375 -32.66015625 -2.96484375 C-22.33698322 -6.40590143 -9.54961752 -4.71352183 0 0 Z " fill="#DF567B" transform="translate(420.66015625,38.96484375)"/>
<path d="M0 0 C3.20894988 1.36158001 4.75167711 2.68492543 6.6875 5.5625 C12.00145611 12.9429946 18.42188832 19.00167102 26 24 C25.06725891 25.12894876 24.12859878 26.25300876 23.1875 27.375 C22.66542969 28.00148437 22.14335937 28.62796875 21.60546875 29.2734375 C20 31 20 31 17 33 C17 31.68 17 30.36 17 29 C17.66 29 18.32 29 19 29 C19 28.34 19 27.68 19 27 C19.66 27 20.32 27 21 27 C20.88693303 25.04105639 20.88693303 25.04105639 20 23 C19.24203125 22.71898437 18.4840625 22.43796875 17.703125 22.1484375 C14.48322877 20.78044691 13.13640866 19.19289808 10.9375 16.5 C8.47791244 13.49979022 6.6182417 11.48275384 3 10 C3 7.69 3 5.38 3 3 C2.01 3 1.02 3 0 3 C-0.2475 3.5775 -0.495 4.155 -0.75 4.75 C-2.16683317 7.3002997 -3.87627537 9.01785701 -6 11 C-6.66 10.67 -7.32 10.34 -8 10 C-7.50628906 9.44570312 -7.01257813 8.89140625 -6.50390625 8.3203125 C-5.86324219 7.59585938 -5.22257812 6.87140625 -4.5625 6.125 C-3.92441406 5.40570313 -3.28632813 4.68640625 -2.62890625 3.9453125 C-0.94985535 2.09249509 -0.94985535 2.09249509 0 0 Z " fill="#F4E65C" transform="translate(290,120)"/>
<path d="M0 0 C0.625 1.8125 0.625 1.8125 1 4 C-1 7 -1 7 -2.9375 7.875 C-5.17950153 8.86634351 -5.17950153 8.86634351 -6.2890625 11.22265625 C-8.28071355 14.45567884 -10.72589894 16.94527863 -13.4375 19.5625 C-13.91509766 20.03107422 -14.39269531 20.49964844 -14.88476562 20.98242188 C-16.25341038 22.32478264 -17.6266125 23.662492 -19 25 C-19.71285156 25.77214844 -20.42570312 26.54429687 -21.16015625 27.33984375 C-23 29 -23 29 -26 29 C-26.2475 29.94875 -26.495 30.8975 -26.75 31.875 C-28.20836961 35.52092402 -28.6375638 35.46288631 -32 37 C-33.80969451 38.90765518 -35.37625233 40.92521132 -37 43 C-37.66 42.67 -38.32 42.34 -39 42 C-38.28714844 41.2265625 -37.57429687 40.453125 -36.83984375 39.65625 C-30.49835766 32.77285654 -30.49835766 32.77285654 -24.3125 25.75 C-21.35571188 22.3345216 -18.19443317 19.17598632 -14.9765625 16.0078125 C-12.41719375 13.40797942 -10.053156 10.66384353 -7.67578125 7.8984375 C-5.23731309 5.13597706 -2.63690415 2.57258941 0 0 Z " fill="#EAD455" transform="translate(274,138)"/>
<path d="M0 0 C0.66 0 1.32 0 2 0 C3.17334963 1.44111404 4.28769269 2.93040948 5.375 4.4375 C10.11772629 10.57154268 15.66152822 14.62645447 22 19 C21.46823005 23.13813705 19.22067834 25.27082318 16.4375 28.25 C15.19806641 29.58804688 15.19806641 29.58804688 13.93359375 30.953125 C13.29550781 31.62859375 12.65742188 32.3040625 12 33 C12 29.89448334 12.5393715 28.64738916 14 26 C14.66 26 15.32 26 16 26 C16 25.34 16 24.68 16 24 C16.66 24 17.32 24 18 24 C18.33 22.35 18.66 20.7 19 19 C18.34 19 17.68 19 17 19 C17 18.34 17 17.68 17 17 C16.401875 16.87625 15.80375 16.7525 15.1875 16.625 C13 16 13 16 10 14 C10 13.34 10 12.68 10 12 C9.34 12 8.68 12 8 12 C8 11.34 8 10.68 8 10 C7.01 9.67 6.02 9.34 5 9 C3.8125 6.4375 3.8125 6.4375 3 4 C-2.32405622 6.6734043 -6.63843559 8.8845759 -10 14 C-10.66 13.67 -11.32 13.34 -12 13 C-10.18777319 11.02058257 -8.37523172 9.04145495 -6.5625 7.0625 C-6.04623047 6.49853516 -5.52996094 5.93457031 -4.99804688 5.35351562 C-1.11328125 1.11328125 -1.11328125 1.11328125 0 0 Z " fill="#F0AC2C" transform="translate(393,217)"/>
<path d="M0 0 C0.66 0.33 1.32 0.66 2 1 C-14 17 -14 17 -16.74609375 19.6796875 C-19.07899396 21.90193037 -19.07899396 21.90193037 -20.5625 24.625 C-22.11280212 27.18636872 -23.55769384 28.32091451 -26 30 C-27.79301898 31.66020276 -28.90445989 32.80891977 -30 35 C-31.32 34.67 -32.64 34.34 -34 34 C-22.78 22.78 -11.56 11.56 0 0 Z " fill="#171A02" transform="translate(293,168)"/>
<path d="M0 0 C0.63671875 1.84375 0.63671875 1.84375 1 4 C-1.1875 6.5 -1.1875 6.5 -4 9 C-4.70125 9.7425 -5.4025 10.485 -6.125 11.25 C-8 13 -8 13 -11 14 C-12.4618351 15.62228202 -12.4618351 15.62228202 -13.8125 17.625 C-16.68398802 21.61197836 -19.76495224 25.30280256 -23 29 C-23.99 28.34 -24.98 27.68 -26 27 C-24.82244141 25.83984375 -24.82244141 25.83984375 -23.62109375 24.65625 C-18.43237665 19.52043682 -13.33676581 14.38749948 -8.6015625 8.82421875 C-5.88724289 5.73254251 -2.94790392 2.86726218 0 0 Z " fill="#DF9121" transform="translate(302,314)"/>
<path d="M0 0 C0.99 0.33 1.98 0.66 3 1 C1.75160427 2.41808059 0.50120779 3.83439995 -0.75 5.25 C-1.44609375 6.03890625 -2.1421875 6.8278125 -2.859375 7.640625 C-4.84586916 9.83011856 -6.89101308 11.92901285 -9 14 C-8.34 15.65 -7.68 17.3 -7 19 C-6.34 19 -5.68 19 -5 19 C-4.34 20.65 -3.68 22.3 -3 24 C-6.80635497 20.79239749 -10.54563567 17.59253891 -14 14 C-12.4561393 10.16666407 -10.07543723 8.01691792 -7 5.3125 C-6.113125 4.52488281 -5.22625 3.73726562 -4.3125 2.92578125 C-2 1 -2 1 0 0 Z " fill="#DB636E" transform="translate(366,47)"/>
<path d="M0 0 C0.33 0.66 0.66 1.32 1 2 C0 5 0 5 -2.875 6.875 C-6.0988668 8.74507522 -6.0988668 8.74507522 -7.5625 11.625 C-9 14 -9 14 -11.5625 15 C-12.366875 15.33 -13.17125 15.66 -14 16 C-14.68753301 17.65816784 -15.35561283 19.32459336 -16 21 C-18.125 21.8125 -18.125 21.8125 -20 22 C-20 22.66 -20 23.32 -20 24 C-20.99 24 -21.98 24 -23 24 C-23 27.63 -23 31.26 -23 35 C-23.33 35 -23.66 35 -24 35 C-25.03251126 31.2164827 -25.50060851 27.90781135 -25 24 C-22.69309976 20.88182145 -19.7620247 18.77485154 -16.70800781 16.41650391 C-13.19918522 13.50652839 -10.06860429 10.18422984 -6.875 6.9375 C-5.56004429 5.61313383 -4.24495175 4.2889035 -2.9296875 2.96484375 C-1.95276833 1.97691507 -0.97606167 0.9887759 0 0 Z " fill="#DDCD48" transform="translate(193,225)"/>
<path d="M0 0 C0.33 0 0.66 0 1 0 C1.53931717 8.49424538 -0.28269818 14.08388855 -5.125 21.0625 C-5.74375 21.701875 -6.3625 22.34125 -7 23 C-7.66 23 -8.32 23 -9 23 C-9.226875 23.886875 -9.45375 24.77375 -9.6875 25.6875 C-11.17188513 29.43380532 -13.02403485 31.33729434 -16 34 C-16.66 33.34 -17.32 32.68 -18 32 C-17.34 32 -16.68 32 -16 32 C-15.7525 31.278125 -15.505 30.55625 -15.25 29.8125 C-13.87617914 26.72140307 -12.12752935 24.62356534 -10 22 C-4.91780631 14.98329387 -1.72839056 8.51026588 0 0 Z " fill="#3D0E19" transform="translate(491,142)"/>
<path d="M0 0 C0 0.99 0 1.98 0 3 C-0.48984375 3.42152344 -0.9796875 3.84304688 -1.484375 4.27734375 C-3.78955894 6.89741106 -3.32629121 9.14846846 -3.25 12.5625 C-3.23453125 13.71878906 -3.2190625 14.87507813 -3.203125 16.06640625 C-3.19343773 18.93342643 -3.19343773 18.93342643 -2 21 C-1.9837303 22.88838218 -2.03534355 24.7775581 -2.12109375 26.6640625 C-2.16943359 27.78554688 -2.21777344 28.90703125 -2.26757812 30.0625 C-2.32365234 31.238125 -2.37972656 32.41375 -2.4375 33.625 C-2.48970703 34.80835938 -2.54191406 35.99171875 -2.59570312 37.2109375 C-2.72566006 40.14087561 -2.86063528 43.07049673 -3 46 C-1.68 46.33 -0.36 46.66 1 47 C-0.65 47 -2.3 47 -4 47 C-4.98973014 39.55503569 -5.50985062 32.12886685 -5.83227539 24.62695312 C-5.90262174 23.12144323 -5.98537912 21.61646374 -6.08032227 20.11230469 C-6.86698956 7.5311004 -6.86698956 7.5311004 -4.66455078 3.64160156 C-3.00390625 1.9765625 -3.00390625 1.9765625 0 0 Z " fill="#F1EB82" transform="translate(221,275)"/>
<path d="M0 0 C0.3125 2.1875 0.3125 2.1875 0 5 C-2.125 7.5 -2.125 7.5 -5 10 C-5.52722656 10.47050781 -6.05445313 10.94101563 -6.59765625 11.42578125 C-10.69542254 15 -10.69542254 15 -13 15 C-13.20625 15.61875 -13.4125 16.2375 -13.625 16.875 C-15.54775888 19.84653645 -17.66594527 20.13024659 -21 21 C-16.77041966 15.95179121 -12.35800414 11.20353723 -7.6875 6.5625 C-7.05521484 5.92634766 -6.42292969 5.29019531 -5.77148438 4.63476562 C-4.86946289 3.73467773 -4.86946289 3.73467773 -3.94921875 2.81640625 C-3.40612061 2.27443604 -2.86302246 1.73246582 -2.3034668 1.17407227 C-1 0 -1 0 0 0 Z " fill="#F0E486" transform="translate(282,213)"/>
<path d="M0 0 C0.33 0.99 0.66 1.98 1 3 C0.01 4.485 0.01 4.485 -1 6 C-1.99 6 -2.98 6 -4 6 C-4.33 7.32 -4.66 8.64 -5 10 C-5.66 10 -6.32 10 -7 10 C-7.07476562 10.75023437 -7.14953125 11.50046875 -7.2265625 12.2734375 C-8.20398177 15.71908727 -9.48673442 16.57797683 -12.375 18.625 C-15.13384721 20.61101053 -17.6690877 22.51870626 -20 25 C-20.66 24.67 -21.32 24.34 -22 24 C-14.66666667 16 -7.33333333 8 0 0 Z " fill="#1E1411" transform="translate(334,323)"/>
<path d="M0 0 C1.61551758 -0.0309375 1.61551758 -0.0309375 3.26367188 -0.0625 C9.41488305 -0.09267148 13.87850758 0.29589826 19.3125 3.25 C19.3125 3.91 19.3125 4.57 19.3125 5.25 C18.2915625 4.92515625 18.2915625 4.92515625 17.25 4.59375 C2.20655087 0.27275929 -9.70642496 1.25946248 -23.6875 8.25 C-23.3575 6.93 -23.0275 5.61 -22.6875 4.25 C-21.6975 4.25 -20.7075 4.25 -19.6875 4.25 C-19.6875 3.26 -19.6875 2.27 -19.6875 1.25 C-18.73875 1.270625 -17.79 1.29125 -16.8125 1.3125 C-11.28634865 1.20197697 -5.8003345 0.02727964 0 0 Z " fill="#28111A" transform="translate(397.6875,32.75)"/>
<path d="M0 0 C1.65 1.65 3.3 3.3 5 5 C4.5153125 5.3403125 4.030625 5.680625 3.53125 6.03125 C-1.19742592 9.45044644 -5.30361061 13.14620631 -9.3359375 17.36328125 C-11 19 -11 19 -13 20 C-13.66 20.99 -14.32 21.98 -15 23 C-15 19 -15 19 -13.73071289 17.34008789 C-13.1505542 16.80633545 -12.57039551 16.27258301 -11.97265625 15.72265625 C-11.03196289 14.82836914 -11.03196289 14.82836914 -10.07226562 13.91601562 C-8.73647947 12.68408067 -7.40054287 11.45230882 -6.06445312 10.22070312 C-1.42544658 5.97430362 -1.42544658 5.97430362 0 0 Z " fill="#B0B1AE" transform="translate(397,139)"/>
<path d="M0 0 C0.33 1.32 0.66 2.64 1 4 C-0.8125 6.25 -0.8125 6.25 -3 8 C-3.66 8 -4.32 8 -5 8 C-5.226875 8.556875 -5.45375 9.11375 -5.6875 9.6875 C-7.97604059 13.71969057 -11.17587898 16.45058599 -15 19 C-15.66 18.34 -16.32 17.68 -17 17 C-11.39 11.39 -5.78 5.78 0 0 Z " fill="#E9DA6A" transform="translate(240,255)"/>
<path d="M0 0 C0.66 0.33 1.32 0.66 2 1 C-0.80848677 3.83318929 -3.620235 6.66309621 -6.43505859 9.48999023 C-7.39234381 10.45230695 -8.34872994 11.41551892 -9.30419922 12.37963867 C-10.67699788 13.76455445 -12.05329472 15.14599991 -13.4296875 16.52734375 C-14.25710449 17.35999756 -15.08452148 18.19265137 -15.93701172 19.05053711 C-18 21 -18 21 -20 22 C-20 25.3 -20 28.6 -20 32 C-20.66 31.67 -21.32 31.34 -22 31 C-22.93312187 27.39511892 -22.99854665 24.60324617 -22 21 C-18.59561663 17.01274494 -14.73922028 13.76965616 -10.70214844 10.44287109 C-8.22706207 8.34479874 -5.96059501 6.06303757 -3.6875 3.75 C-2.96949219 3.02296875 -2.25148437 2.2959375 -1.51171875 1.546875 C-0.76341797 0.78117188 -0.76341797 0.78117188 0 0 Z " fill="#1F1C01" transform="translate(189,227)"/>
<path d="M0 0 C0.99 0.33 1.98 0.66 3 1 C2.67 1.33 2.34 1.66 2 2 C1.6145251 9.68533243 1.6145251 9.68533243 4.0625 16.8125 C7.24555699 18.7634059 10.32430673 18.1807718 14 18 C14 18.33 14 18.66 14 19 C12.4176994 19.33820166 10.83410625 19.67035939 9.25 20 C8.36828125 20.185625 7.4865625 20.37125 6.578125 20.5625 C4 21 4 21 0 21 C0 14.07 0 7.14 0 0 Z " fill="#F5E43B" transform="translate(170,249)"/>
<path d="M0 0 C0.66 0 1.32 0 2 0 C3.4606285 2.64738916 4 3.89448334 4 7 C4.66 7 5.32 7 6 7 C9.80752719 19.17048871 10.46882048 30.28975591 10 43 C9.67 43 9.34 43 9 43 C8.97421875 41.86304688 8.9484375 40.72609375 8.921875 39.5546875 C8.4994711 26.65382694 6.47011268 15.40807672 0.734375 3.671875 C0 2 0 2 0 0 Z " fill="#360D21" transform="translate(483,99)"/>
<path d="M0 0 C0.33 0.66 0.66 1.32 1 2 C-3.59344338 7.33027559 -8.30220916 12.54370461 -13.09106445 17.69824219 C-15.86542702 20.70051842 -18.48468941 23.77781055 -21 27 C-21.99 26.67 -22.98 26.34 -24 26 C-23.43152344 25.443125 -22.86304688 24.88625 -22.27734375 24.3125 C-17.94033522 20.02617438 -13.7463589 15.68824886 -9.7734375 11.0625 C-7.72897617 8.68480048 -5.64807236 6.34169529 -3.5625 4 C-2.88316406 3.236875 -2.20382812 2.47375 -1.50390625 1.6875 C-1.00761719 1.130625 -0.51132812 0.57375 0 0 Z " fill="#D2952D" transform="translate(363,249)"/>
<path d="M0 0 C0 3 0 3 -1.57421875 4.97265625 C-2.27160156 5.66230469 -2.96898437 6.35195312 -3.6875 7.0625 C-4.37199219 7.75472656 -5.05648438 8.44695312 -5.76171875 9.16015625 C-8.09838265 11.0808695 -10.19571294 11.93351392 -13 13 C-14.16666667 14.91666667 -14.16666667 14.91666667 -15 17 C-16.625 18.75 -16.625 18.75 -18 20 C-18.66 19.67 -19.32 19.34 -20 19 C-17.6139155 16.38675487 -15.21449394 13.78612228 -12.8125 11.1875 C-12.13896484 10.44951172 -11.46542969 9.71152344 -10.77148438 8.95117188 C-7.43433529 5.35356238 -4.47118909 2.1965259 0 0 Z " fill="#E69014" transform="translate(384,229)"/>
<path d="M0 0 C3.43752007 1.5277867 6.18953688 3.50181056 9 6 C9 6.66 9 7.32 9 8 C9.56976563 8.23847656 10.13953125 8.47695312 10.7265625 8.72265625 C13.47162634 10.26498594 15.22569081 12.14113281 17.375 14.4375 C20.75176367 17.90914794 23.49189518 20.26611353 28 22 C27.34 23.32 26.68 24.64 26 26 C23.52695961 23.53135222 21.05825109 21.05910632 18.60546875 18.5703125 C14.11885346 14.03296004 9.60090354 9.64960252 4.69140625 5.5703125 C2.85496258 3.86534632 1.44520621 2.04185098 0 0 Z " fill="#291D05" transform="translate(350,177)"/>
<path d="M0 0 C0 3.35797754 -0.47020458 5.02116082 -2 8 C-4.42578125 10.28125 -4.42578125 10.28125 -7.3125 12.5 C-11.14199614 15.46746768 -14.63088839 18.5142889 -18 22 C-18.66 21.67 -19.32 21.34 -20 21 C-19.35933594 20.3709375 -18.71867187 19.741875 -18.05859375 19.09375 C-13.34862204 14.43291362 -8.76410416 9.74202922 -4.47265625 4.69140625 C-3.04541597 3.05216211 -1.55487662 1.51774524 0 0 Z " fill="#371F0A" transform="translate(392,262)"/>
<path d="M0 0 C0.66 0 1.32 0 2 0 C0.64763423 2.93879484 -0.89942659 5.29232911 -3 7.75 C-3.515625 8.36359375 -4.03125 8.9771875 -4.5625 9.609375 C-6 11 -6 11 -8 11 C-8.2475 11.598125 -8.495 12.19625 -8.75 12.8125 C-10.18072525 15.31626919 -11.5691582 16.48072388 -14 18 C-14.66 18 -15.32 18 -16 18 C-14.44396229 14.18063472 -12.04395069 11.73955562 -9 9 C-8.34 9 -7.68 9 -7 9 C-7 8.34 -7 7.68 -7 7 C-5.34614767 5.65080468 -3.678298 4.31866272 -2 3 C-1.34 2.01 -0.68 1.02 0 0 Z " fill="#DF1852" transform="translate(480,104)"/>
<path d="M0 0 C0.66 0 1.32 0 2 0 C3.38938077 1.96147874 4.7260411 3.96166576 6 6 C5.01 6 4.02 6 3 6 C3 5.34 3 4.68 3 4 C-2.32405622 6.6734043 -6.63843559 8.8845759 -10 14 C-10.66 13.67 -11.32 13.34 -12 13 C-10.18777319 11.02058257 -8.37523172 9.04145495 -6.5625 7.0625 C-6.04623047 6.49853516 -5.52996094 5.93457031 -4.99804688 5.35351562 C-1.11328125 1.11328125 -1.11328125 1.11328125 0 0 Z " fill="#E29A2E" transform="translate(393,217)"/>
<path d="M0 0 C0.2475 0.639375 0.495 1.27875 0.75 1.9375 C1.81562433 4.18741541 1.81562433 4.18741541 4.125 4.75 C4.74375 4.8325 5.3625 4.915 6 5 C2.67692308 8.93846154 2.67692308 8.93846154 -0.75 9.25 C-1.4925 9.1675 -2.235 9.085 -3 9 C-3 6.69 -3 4.38 -3 2 C-2.34 2 -1.68 2 -1 2 C-0.67 1.34 -0.34 0.68 0 0 Z " fill="#FAF54D" transform="translate(221,312)"/>
<path d="M0 0 C3.36847828 1.40717816 5.01943368 2.97758085 7.125 5.9375 C7.62257813 6.62714844 8.12015625 7.31679687 8.6328125 8.02734375 C9.7731108 9.6726313 10.88959449 11.33439173 12 13 C7.71095765 11.4114658 5.67654474 8.56872632 3 5 C3 4.34 3 3.68 3 3 C2.01 3 1.02 3 0 3 C-0.2475 3.5775 -0.495 4.155 -0.75 4.75 C-2.16683317 7.3002997 -3.87627537 9.01785701 -6 11 C-6.66 10.67 -7.32 10.34 -8 10 C-7.50628906 9.44570312 -7.01257813 8.89140625 -6.50390625 8.3203125 C-5.86324219 7.59585938 -5.22257812 6.87140625 -4.5625 6.125 C-3.92441406 5.40570313 -3.28632813 4.68640625 -2.62890625 3.9453125 C-0.94985535 2.09249509 -0.94985535 2.09249509 0 0 Z " fill="#E9D979" transform="translate(290,120)"/>
<path d="M0 0 C1.13598633 0.00483398 1.13598633 0.00483398 2.29492188 0.00976562 C3.47344727 0.02233398 3.47344727 0.02233398 4.67578125 0.03515625 C5.47306641 0.03966797 6.27035156 0.04417969 7.09179688 0.04882812 C9.05732382 0.06059775 11.0228121 0.07853277 12.98828125 0.09765625 C9.44643417 3.47042018 6.64533185 3.47504838 1.86328125 3.41015625 C0.62320312 3.40628906 -0.616875 3.40242188 -1.89453125 3.3984375 C-5.01171875 3.09765625 -5.01171875 3.09765625 -7.01171875 1.09765625 C-4.30455633 0.19526878 -2.77395107 -0.02085677 0 0 Z " fill="#F0657C" transform="translate(395.01171875,34.90234375)"/>
<path d="M0 0 C0.99 0 1.98 0 3 0 C2.61402985 2.79828356 2.19863427 3.8205884 0.0625 5.75 C-2 7 -2 7 -4 7 C-5.56266521 8.099763 -5.56266521 8.099763 -7.125 9.5 C-8.07375 10.325 -9.0225 11.15 -10 12 C-10 10.68 -10 9.36 -10 8 C-8.3203125 6.3671875 -8.3203125 6.3671875 -6.125 4.875 C-3.87699597 3.31992911 -1.93794746 1.93794746 0 0 Z " fill="#FCF17D" transform="translate(278,256)"/>
<path d="M0 0 C0 5.01392926 -2.78055114 7.89749688 -6.1875 11.3125 C-7.115625 12.199375 -8.04375 13.08625 -9 14 C-9.99 13.67 -10.98 13.34 -12 13 C-8.13635705 8.51282966 -4.25209792 4.12324647 0 0 Z " fill="#E4CE49" transform="translate(234,181)"/>
<path d="M0 0 C0.99 0 1.98 0 3 0 C3.33 0.99 3.66 1.98 4 3 C3.34 3.66 2.68 4.32 2 5 C1.67 4.34 1.34 3.68 1 3 C0.278125 3.78375 -0.44375 4.5675 -1.1875 5.375 C-3.87760433 7.88576404 -5.66530524 8.70317426 -9 10 C-9.33 10.99 -9.66 11.98 -10 13 C-12.5625 14.1875 -12.5625 14.1875 -15 15 C-11.62582943 10.76779292 -8.71872326 7.73189242 -4 5 C-3.29875 4.113125 -2.5975 3.22625 -1.875 2.3125 C-1.25625 1.549375 -0.6375 0.78625 0 0 Z " fill="#F6DE52" transform="translate(290,123)"/>
<path d="M0 0 C1.33333333 0.66666667 2.66666667 1.33333333 4 2 C4.70125 2.309375 5.4025 2.61875 6.125 2.9375 C8 4 8 4 10 7 C10.99 7.33 11.98 7.66 13 8 C13.6875 10.0625 13.6875 10.0625 14 12 C14.66 12 15.32 12 16 12 C16.66 13.32 17.32 14.64 18 16 C15.07502076 14.66838999 12.8931508 13.18561693 10.546875 10.99609375 C9.928125 10.42052734 9.309375 9.84496094 8.671875 9.25195312 C8.03765625 8.65318359 7.4034375 8.05441406 6.75 7.4375 C6.1003125 6.83486328 5.450625 6.23222656 4.78125 5.61132812 C1.26519798 2.32056935 1.26519798 2.32056935 0 1 C0 0.67 0 0.34 0 0 Z " fill="#D54E70" transform="translate(388,95)"/>
<path d="M0 0 C0.33 0.66 0.66 1.32 1 2 C-2.36446224 6.31071724 -5.96959071 9.84068603 -10.12890625 13.38671875 C-12.18926163 15.16318382 -14.11623602 17.03774585 -16 19 C-16.66 18.67 -17.32 18.34 -18 18 C-12.06 12.06 -6.12 6.12 0 0 Z " fill="#171507" transform="translate(317,264)"/>
<path d="M0 0 C0.33 0.99 0.66 1.98 1 3 C-0.28965176 4.37562854 -1.62689293 5.70766393 -3 7 C-3.66 7 -4.32 7 -5 7 C-5.23460937 7.56203125 -5.46921875 8.1240625 -5.7109375 8.703125 C-7.30663 11.54635891 -9.28924543 13.48098127 -11.625 15.75 C-12.44226563 16.54921875 -13.25953125 17.3484375 -14.1015625 18.171875 C-14.72804688 18.77515625 -15.35453125 19.3784375 -16 20 C-16.66 19.67 -17.32 19.34 -18 19 C-17.28714844 18.29875 -16.57429688 17.5975 -15.83984375 16.875 C-10.33348052 11.43021413 -4.9839063 5.93646177 0 0 Z " fill="#291C04" transform="translate(369,208)"/>
<path d="M0 0 C0.33 1.32 0.66 2.64 1 4 C0.01 4 -0.98 4 -2 4 C-2.2475 4.94875 -2.495 5.8975 -2.75 6.875 C-4.20836961 10.52092402 -4.6375638 10.46288631 -8 12 C-9.80969451 13.90765518 -11.37625233 15.92521132 -13 18 C-13.66 17.67 -14.32 17.34 -15 17 C-13.87851563 15.78763672 -13.87851563 15.78763672 -12.734375 14.55078125 C-11.73949763 13.47143316 -10.74471077 12.39200163 -9.75 11.3125 C-9.25886719 10.78205078 -8.76773438 10.25160156 -8.26171875 9.70507812 C-5.37269261 6.56566972 -2.62459433 3.36822939 0 0 Z " fill="#DECC49" transform="translate(250,163)"/>
<path d="M0 0 C1 3 1 3 0.109375 4.82421875 C-0.33921875 5.43910156 -0.7878125 6.05398437 -1.25 6.6875 C-1.68828125 7.31011719 -2.1265625 7.93273437 -2.578125 8.57421875 C-3.28195313 9.27998047 -3.28195313 9.27998047 -4 10 C-4.99 10 -5.98 10 -7 10 C-7 10.66 -7 11.32 -7 12 C-8.32 11.67 -9.64 11.34 -11 11 C-10.01 10.67 -9.02 10.34 -8 10 C-7.5978125 9.1646875 -7.5978125 9.1646875 -7.1875 8.3125 C-5.42097496 4.87242492 -2.78863174 2.66738688 0 0 Z " fill="#E4CC3B" transform="translate(221,195)"/>
<path d="M0 0 C0.99 0.33 1.98 0.66 3 1 C1.35 2.65 -0.3 4.3 -2 6 C-1.34 7.65 -0.68 9.3 0 11 C0.66 11 1.32 11 2 11 C2.66 12.65 3.32 14.3 4 16 C2.87411986 15.04270084 1.7493285 14.08412105 0.625 13.125 C-0.00148438 12.59132813 -0.62796875 12.05765625 -1.2734375 11.5078125 C-2.55836651 10.38567993 -3.79371975 9.20628025 -5 8 C-4.83584208 4.79892061 -4.40941172 3.40941172 -2.125 1.125 C-1.42375 0.75375 -0.7225 0.3825 0 0 Z " fill="#F55766" transform="translate(359,55)"/>
<path d="M0 0 C3.5786304 1.65167557 6.74820188 3.78286492 10 6 C8.19587357 9.26460973 7.16605307 10.88929795 4 13 C4.33 10.36 4.66 7.72 5 5 C4.01 4.67 3.02 4.34 2 4 C2 3.34 2 2.68 2 2 C1.34 2 0.68 2 0 2 C0 1.34 0 0.68 0 0 Z " fill="#A9B4C5" transform="translate(446,186)"/>
<path d="M0 0 C0.33 0 0.66 0 1 0 C1.57446809 19.53191489 1.57446809 19.53191489 -2 28 C-3.01747184 24.83293977 -2.92427695 22.83305682 -2.125 19.625 C-0.68832987 13.14056994 -0.36235056 6.61766549 0 0 Z " fill="#BE3763" transform="translate(491,124)"/>
<path d="M0 0 C0 3 0 3 -1.6796875 5.04296875 C-2.76636719 6.10451172 -2.76636719 6.10451172 -3.875 7.1875 C-4.95394531 8.26064453 -4.95394531 8.26064453 -6.0546875 9.35546875 C-8 11 -8 11 -10 11 C-9.35334574 7.508067 -8.13457576 4.84610101 -6 2 C-4.68 2 -3.36 2 -2 2 C-1.34 1.34 -0.68 0.68 0 0 Z " fill="#FEF274" transform="translate(338,196)"/>
<path d="M0 0 C0 4.05345102 -1.58160112 5.8215329 -4 9 C-4.99 9.33 -5.98 9.66 -7 10 C-8.42857119 11.40105576 -8.42857119 11.40105576 -9.6875 13.0625 C-10.450625 14.031875 -11.21375 15.00125 -12 16 C-12.66 15.67 -13.32 15.34 -14 15 C-9.38 10.05 -4.76 5.1 0 0 Z " fill="#D28D2A" transform="translate(323,292)"/>
<path d="M0 0 C0 3.65351863 -0.88942301 5.06026776 -3 8 C-5.1875 9.3125 -5.1875 9.3125 -7 10 C-7 10.66 -7 11.32 -7 12 C-8.32 11.67 -9.64 11.34 -11 11 C-7.37 7.37 -3.74 3.74 0 0 Z " fill="#2A2D11" transform="translate(258,203)"/>
<path d="M0 0 C0 0.66 0 1.32 0 2 C-0.99 2 -1.98 2 -3 2 C-3.061875 2.598125 -3.12375 3.19625 -3.1875 3.8125 C-4 6 -4 6 -6.3125 7.8125 C-9.30759032 9.135912 -10.0129773 8.93623099 -13 8 C-11.5433323 6.85204994 -10.08461063 5.70670581 -8.625 4.5625 C-7.40683594 3.60537109 -7.40683594 3.60537109 -6.1640625 2.62890625 C-2.67146283 0 -2.67146283 0 0 0 Z " fill="#C1565E" transform="translate(380,38)"/>
<path d="M0 0 C0.66 0 1.32 0 2 0 C1.88521587 2.06309376 1.75773802 4.12548354 1.625 6.1875 C1.55539062 7.33605469 1.48578125 8.48460937 1.4140625 9.66796875 C1.02490426 12.79959117 0.3190149 15.15285809 -1 18 C-1.66 17.67 -2.32 17.34 -3 17 C-2.86722656 16.27554687 -2.73445313 15.55109375 -2.59765625 14.8046875 C-1.69718291 9.87508895 -0.80218034 4.94677877 0 0 Z " fill="#1C2223" transform="translate(476,412)"/>
<path d="M0 0 C3.96 0 7.92 0 12 0 C12 4.95 12 9.9 12 15 C11.67 15 11.34 15 11 15 C11 11.04 11 7.08 11 3 C9.68 3.33 8.36 3.66 7 4 C7 3.01 7 2.02 7 1 C4.69 1 2.38 1 0 1 C0 0.67 0 0.34 0 0 Z " fill="#DDDEDD" transform="translate(234,343)"/>
<path d="M0 0 C0 0.99 0 1.98 0 3 C-2.3125 5 -2.3125 5 -5 7 C-6.81049081 8.68117004 -7.89476614 9.78953228 -9 12 C-10.32 11.67 -11.64 11.34 -13 11 C-11.58972554 9.53548421 -10.17151204 8.0786107 -8.75 6.625 C-7.96109375 5.81289062 -7.1721875 5.00078125 -6.359375 4.1640625 C-4.26620545 2.24416857 -2.59602821 1.08366315 0 0 Z " fill="#1B1E15" transform="translate(272,191)"/>
<path d="M0 0 C6.27762202 3.63441275 10.99111424 8.81293254 16 14 C15.01 14.495 15.01 14.495 14 15 C2.01702335 4.95087549 2.01702335 4.95087549 0 0 Z " fill="#9097A4" transform="translate(431,171)"/>
<path d="M0 0 C0.66 0 1.32 0 2 0 C1.6875 2.375 1.6875 2.375 1 5 C0.01 5.66 -0.98 6.32 -2 7 C-2.72382467 9.05925139 -2.72382467 9.05925139 -3 11 C-5.31 11.66 -7.62 12.32 -10 13 C-9.61328125 12.55269531 -9.2265625 12.10539063 -8.828125 11.64453125 C-3.21474556 6.23186271 -3.21474556 6.23186271 0 0 Z " fill="#282712" transform="translate(315,143)"/>
<path d="M0 0 C0.33 0.99 0.66 1.98 1 3 C-0.109375 4.82421875 -0.109375 4.82421875 -1.75 6.6875 C-2.28109375 7.31011719 -2.8121875 7.93273437 -3.359375 8.57421875 C-5 10 -5 10 -8 10 C-8.66 11.32 -9.32 12.64 -10 14 C-9.7312159 10.05783322 -9.44655191 8.43510186 -6.5625 5.625 C-4 4 -4 4 -2 4 C-2 3.34 -2 2.68 -2 2 C-1.34 2 -0.68 2 0 2 C0 1.34 0 0.68 0 0 Z " fill="#F31D56" transform="translate(452,130)"/>
<path d="M0 0 C0.33 1.32 0.66 2.64 1 4 C0.34 4.66 -0.32 5.32 -1 6 C-1.99 6 -2.98 6 -4 6 C-4.061875 6.5775 -4.12375 7.155 -4.1875 7.75 C-5.32027301 10.88690987 -7.34197595 12.09167504 -10 14 C-10.66 13.67 -11.32 13.34 -12 13 C-8.04 8.71 -4.08 4.42 0 0 Z " fill="#EBD349" transform="translate(206,211)"/>
<path d="M0 0 C1.87978657 2.73177617 2.01655381 3.88384275 1.5390625 7.234375 C1.23742187 8.39453125 0.93578125 9.5546875 0.625 10.75 C0.32851562 11.92046875 0.03203125 13.0909375 -0.2734375 14.296875 C-0.51320313 15.18890625 -0.75296875 16.0809375 -1 17 C-1.66 17 -2.32 17 -3 17 C-2.48517081 11.147205 -1.54642808 5.6702363 0 0 Z " fill="#242528" transform="translate(107,426)"/>
<path d="M0 0 C0.33 0.66 0.66 1.32 1 2 C-0.80831392 5.61662784 -3.05278838 8.25604436 -6 11 C-6.99 10.34 -7.98 9.68 -9 9 C-6.03 6.03 -3.06 3.06 0 0 Z " fill="#342C10" transform="translate(279,302)"/>
<path d="M0 0 C1.65 0.99 3.3 1.98 5 3 C4.65120368 6.25543229 3.97866739 7.01873107 1.4375 9.25 C0.633125 9.8275 -0.17125 10.405 -1 11 C-1 10.01 -1 9.02 -1 8 C-0.34 8 0.32 8 1 8 C0.67 5.36 0.34 2.72 0 0 Z " fill="#F1CC34" transform="translate(370,197)"/>
<path d="M0 0 C0.66 0.33 1.32 0.66 2 1 C-1.96 5.29 -5.92 9.58 -10 14 C-10.66 13.34 -11.32 12.68 -12 12 C-11.01 11.67 -10.02 11.34 -9 11 C-9 10.34 -9 9.68 -9 9 C-8.34 9 -7.68 9 -7 9 C-6.773125 8.443125 -6.54625 7.88625 -6.3125 7.3125 C-4.64103234 4.36753316 -2.44723648 2.31843456 0 0 Z " fill="#2E2604" transform="translate(204,211)"/>
<path d="M0 0 C1.2065625 0.0309375 1.2065625 0.0309375 2.4375 0.0625 C1.48487966 1.54535242 0.52521595 3.02368201 -0.4375 4.5 C-0.97117188 5.32371094 -1.50484375 6.14742188 -2.0546875 6.99609375 C-3.5625 9.0625 -3.5625 9.0625 -5.5625 10.0625 C-5.25451674 8.58238629 -4.940982 7.10342675 -4.625 5.625 C-4.45097656 4.80128906 -4.27695313 3.97757812 -4.09765625 3.12890625 C-3.31713345 0.11506273 -3.19062011 0.07782 0 0 Z " fill="#31393E" transform="translate(137.5625,401.9375)"/>
<path d="M0 0 C0.66 0.33 1.32 0.66 2 1 C-1.96 5.29 -5.92 9.58 -10 14 C-10 10.38462395 -9.10770759 8.88834003 -7 6 C-6.01 6 -5.02 6 -4 6 C-3.71125 5.38125 -3.4225 4.7625 -3.125 4.125 C-2 2 -2 2 0 0 Z " fill="#272104" transform="translate(242,170)"/>
<path d="M0 0 C0.33 1.32 0.66 2.64 1 4 C0.34 4 -0.32 4 -1 4 C-1.268125 4.61875 -1.53625 5.2375 -1.8125 5.875 C-3 8 -3 8 -6 10 C-6.66 9.34 -7.32 8.68 -8 8 C-7.01 7.67 -6.02 7.34 -5 7 C-4.29848848 5.6846659 -3.63474075 4.34882408 -3 3 C-1.375 1.25 -1.375 1.25 0 0 Z " fill="#2F280F" transform="translate(292,289)"/>
<path d="M0 0 C2.475 0.495 2.475 0.495 5 1 C5.33 1.99 5.66 2.98 6 4 C6.66 4.33 7.32 4.66 8 5 C8 5.66 8 6.32 8 7 C8.639375 7.28875 9.27875 7.5775 9.9375 7.875 C12 9 12 9 13 11 C8.98935008 9.65843409 6.61296284 7.97314977 3.6875 4.9375 C2.99011719 4.22464844 2.29273438 3.51179687 1.57421875 2.77734375 C0 1 0 1 0 0 Z " fill="#21210C" transform="translate(301,131)"/>
<path d="M0 0 C0.99 0.33 1.98 0.66 3 1 C1.02 3.31 -0.96 5.62 -3 8 C-3.99 7.34 -4.98 6.68 -6 6 C-4.02 4.02 -2.04 2.04 0 0 Z " fill="#DF8712" transform="translate(282,335)"/>
<path d="M0 0 C0.99 0.33 1.98 0.66 3 1 C-0.3810038 5.13621084 -3.66590534 8.81316569 -8 12 C-5.96158013 7.58342362 -3.44742258 3.44742258 0 0 Z " fill="#2F2009" transform="translate(329,282)"/>
<path d="M0 0 C0.66 0 1.32 0 2 0 C1.67 0.99 1.34 1.98 1 3 C0.34 3 -0.32 3 -1 3 C-0.67 2.01 -0.34 1.02 0 0 Z M-1 3 C-1 4.65 -1 6.3 -1 8 C-2.98 8.99 -2.98 8.99 -5 10 C-5 6 -5 6 -3.5625 4.25 C-2 3 -2 3 -1 3 Z " fill="#FDEE72" transform="translate(309,223)"/>
<path d="M0 0 C0.33 0.99 0.66 1.98 1 3 C0.01 4.485 0.01 4.485 -1 6 C-1.99 6 -2.98 6 -4 6 C-4.33 7.32 -4.66 8.64 -5 10 C-5.99 10 -6.98 10 -8 10 C-6.34908222 5.70761377 -3.26245434 3.1206085 0 0 Z " fill="#3A2309" transform="translate(334,323)"/>
<path d="M0 0 C0.33 0.66 0.66 1.32 1 2 C-1.31 4.64 -3.62 7.28 -6 10 C-6.33 8.68 -6.66 7.36 -7 6 C-4.69 4.02 -2.38 2.04 0 0 Z " fill="#2A2A10" transform="translate(261,231)"/>
<path d="M0 0 C0 3.31934673 -0.43709146 4.02487607 -2.3125 6.625 C-2.95638672 7.54152344 -2.95638672 7.54152344 -3.61328125 8.4765625 C-5 10 -5 10 -8 11 C-6.52670958 5.99081256 -3.72484762 3.48192278 0 0 Z " fill="#F7E878" transform="translate(301,194)"/>
<path d="M0 0 C3.79598549 1.49128001 5.71720399 3.65733441 8 7 C8 7.99 8 8.98 8 10 C7.34 10 6.68 10 6 10 C6 9.34 6 8.68 6 8 C5.34 8 4.68 8 4 8 C3.87625 7.071875 3.87625 7.071875 3.75 6.125 C3.18741541 3.81562433 3.18741541 3.81562433 0.9375 2.75 C0.298125 2.5025 -0.34125 2.255 -1 2 C-0.67 1.34 -0.34 0.68 0 0 Z " fill="#E4DB9C" transform="translate(330,160)"/>
<path d="M0 0 C0.66 0.33 1.32 0.66 2 1 C-0.97 4.3 -3.94 7.6 -7 11 C-7.99 10.67 -8.98 10.34 -10 10 C-6.7 6.7 -3.4 3.4 0 0 Z " fill="#DB9622" transform="translate(349,265)"/>
<path d="M0 0 C0.33 1.32 0.66 2.64 1 4 C-0.6875 6.3125 -0.6875 6.3125 -3 8 C-4.32 7.67 -5.64 7.34 -7 7 C-4.69 4.69 -2.38 2.38 0 0 Z " fill="#EFE177" transform="translate(240,255)"/>
<path d="M0 0 C0.33 0 0.66 0 1 0 C1.22226864 1.76913824 1.42733873 3.54044371 1.625 5.3125 C1.74101563 6.29863281 1.85703125 7.28476563 1.9765625 8.30078125 C2 11 2 11 0 14 C-1.09321611 9.49048355 -2.13999677 4.27999354 0 0 Z " fill="#292E32" transform="translate(112,149)"/>
<path d="M0 0 C1.32 0.33 2.64 0.66 4 1 C1.36 3.64 -1.28 6.28 -4 9 C-4.33 8.34 -4.66 7.68 -5 7 C-4.67 6.01 -4.34 5.02 -4 4 C-3.01 4 -2.02 4 -1 4 C-0.67 2.68 -0.34 1.36 0 0 Z " fill="#E7B830" transform="translate(299,278)"/>
<path d="M0 0 C0.99 0.33 1.98 0.66 3 1 C1.625 3 1.625 3 0 5 C-0.66 5 -1.32 5 -2 5 C-2 5.66 -2 6.32 -2 7 C-3.32 6.67 -4.64 6.34 -6 6 C-4.02 4.02 -2.04 2.04 0 0 Z " fill="#EDDC79" transform="translate(255,240)"/>
<path d="M0 0 C1.31611677 0.95336021 2.62778961 1.91285774 3.9375 2.875 C4.66839844 3.40867188 5.39929688 3.94234375 6.15234375 4.4921875 C8 6 8 6 9 8 C5.62537285 7.45276317 3.91765 6.9451 1 5 C0.3125 2.375 0.3125 2.375 0 0 Z " fill="#2C101A" transform="translate(457,159)"/>
<path d="M0 0 C0.66 0.33 1.32 0.66 2 1 C1.07038578 2.15224028 0.1309875 3.29659176 -0.8125 4.4375 C-1.59560547 5.39462891 -1.59560547 5.39462891 -2.39453125 6.37109375 C-4 8 -4 8 -7 9 C-6.875 6.75 -6.875 6.75 -6 4 C-2.9375 1.6875 -2.9375 1.6875 0 0 Z " fill="#F2D846" transform="translate(258,157)"/>
<path d="M0 0 C0.66 0.99 1.32 1.98 2 3 C-2.82142857 8.22321429 -2.82142857 8.22321429 -7 9 C-6.02180976 7.68677212 -5.0424189 6.37443848 -4.0625 5.0625 C-3.51722656 4.33160156 -2.97195313 3.60070312 -2.41015625 2.84765625 C-1 1 -1 1 0 0 Z " fill="#1E2225" transform="translate(278,98)"/>
<path d="M0 0 C3.87132028 0.57352893 6.08172796 2.48704352 9 5 C8.67 6.32 8.34 7.64 8 9 C6.5 7.625 6.5 7.625 5 6 C5 5.34 5 4.68 5 4 C4.360625 3.71125 3.72125 3.4225 3.0625 3.125 C1 2 1 2 0 0 Z " fill="#D44B6A" transform="translate(377,85)"/>
<path d="M0 0 C0 0.66 0 1.32 0 2 C-3.63423209 4.32590854 -6.77088331 4.16265833 -11 4 C-11 3.34 -11 2.68 -11 2 C-9.5422647 1.664061 -8.08378894 1.33133376 -6.625 1 C-5.40683594 0.7215625 -5.40683594 0.7215625 -4.1640625 0.4375 C-2 0 -2 0 0 0 Z " fill="#D2CECE" transform="translate(166,433)"/>
<path d="M0 0 C2.14699969 3.44175522 2.09856795 5.7720292 1.625 9.75 C1.51414062 10.73484375 1.40328125 11.7196875 1.2890625 12.734375 C1.19367188 13.48203125 1.09828125 14.2296875 1 15 C-1.42945561 11.35581659 -1.0828781 10.07076636 -0.625 5.8125 C-0.51414062 4.72582031 -0.40328125 3.63914062 -0.2890625 2.51953125 C-0.19367188 1.68808594 -0.09828125 0.85664063 0 0 Z " fill="#272D2F" transform="translate(124,336)"/>
<path d="M0 0 C0.66 0.33 1.32 0.66 2 1 C0.68 1.99 -0.64 2.98 -2 4 C-1.34 2.68 -0.68 1.36 0 0 Z M-4 4 C-3.34 4.33 -2.68 4.66 -2 5 C-2.99 5.66 -3.98 6.32 -5 7 C-4.67 6.01 -4.34 5.02 -4 4 Z M-9 7 C-7.02 7.495 -7.02 7.495 -5 8 C-6.65 9.32 -8.3 10.64 -10 12 C-9.67 10.35 -9.34 8.7 -9 7 Z " fill="#EFA403" transform="translate(271,272)"/>
<path d="M0 0 C0.66 0.33 1.32 0.66 2 1 C-0.97 4.3 -3.94 7.6 -7 11 C-7.33 10.01 -7.66 9.02 -8 8 C-7.01 7.34 -6.02 6.68 -5 6 C-4.67 5.01 -4.34 4.02 -4 3 C-1.9375 1.3125 -1.9375 1.3125 0 0 Z " fill="#331B07" transform="translate(385,223)"/>
<path d="M0 0 C0.99 0.33 1.98 0.66 3 1 C-0.32307692 5.8 -0.32307692 5.8 -3.75 6.8125 C-4.4925 6.874375 -5.235 6.93625 -6 7 C-4.02 4.69 -2.04 2.38 0 0 Z " fill="#E1D576" transform="translate(267,227)"/>
<path d="M0 0 C-0.125 2.3125 -0.125 2.3125 -1 5 C-4.0625 6.8125 -4.0625 6.8125 -7 8 C-4.18918919 0 -4.18918919 0 0 0 Z " fill="#E4E5E6" transform="translate(478,206)"/>
<path d="M0 0 C-2.53199972 2.53199972 -4.54559335 3.11946497 -8 4 C-10.875 3.625 -10.875 3.625 -13 3 C-13 2.67 -13 2.34 -13 2 C-8.49646738 0.24252386 -4.82360189 -0.19294408 0 0 Z " fill="#070A0F" transform="translate(129,442)"/>
<path d="M0 0 C0.66 0.33 1.32 0.66 2 1 C-0.97088618 4.99926986 -4.12948725 7.92118304 -8 11 C-7.43040847 7.37386801 -6.07625466 5.74482259 -3.4375 3.25 C-2.79683594 2.63640625 -2.15617188 2.0228125 -1.49609375 1.390625 C-1.00238281 0.93171875 -0.50867188 0.4728125 0 0 Z " fill="#2C2806" transform="translate(215,199)"/>
<path d="M0 0 C0.66 0.33 1.32 0.66 2 1 C-1.33333333 4.33333333 -4.66666667 7.66666667 -8 11 C-8 7.0234755 -6.61988497 5.9109833 -4 3 C-1.75 1.1875 -1.75 1.1875 0 0 Z " fill="#242204" transform="translate(229,184)"/>
<path d="M0 0 C0.33 0.99 0.66 1.98 1 3 C-0.9375 5.6875 -0.9375 5.6875 -3 8 C-4.32 7.67 -5.64 7.34 -7 7 C-4.69 4.69 -2.38 2.38 0 0 Z " fill="#EADE81" transform="translate(315,177)"/>
<path d="M0 0 C1.32 0.33 2.64 0.66 4 1 C1.69 3.31 -0.62 5.62 -3 8 C-3.66 7.34 -4.32 6.68 -5 6 C-4.01 5.67 -3.02 5.34 -2 5 C-2 4.01 -2 3.02 -2 2 C-1.34 2 -0.68 2 0 2 C0 1.34 0 0.68 0 0 Z " fill="#363610" transform="translate(283,125)"/>
<path d="M0 0 C0.66 0.33 1.32 0.66 2 1 C-1.33333333 4.33333333 -4.66666667 7.66666667 -8 11 C-8 8 -8 8 -6.25 5.95703125 C-5.5075 5.24933594 -4.765 4.54164063 -4 3.8125 C-2.88625 2.73935547 -2.88625 2.73935547 -1.75 1.64453125 C-1.1725 1.10183594 -0.595 0.55914062 0 0 Z " fill="#272306" transform="translate(229,264)"/>
<path d="M0 0 C0.33 0.99 0.66 1.98 1 3 C0.01 3.33 -0.98 3.66 -2 4 C-2.70151152 5.3153341 -3.36525925 6.65117592 -4 8 C-5.625 9.75 -5.625 9.75 -7 11 C-7.66 10.67 -8.32 10.34 -9 10 C-6.03 6.7 -3.06 3.4 0 0 Z " fill="#D38E27" transform="translate(373,238)"/>
<path d="M0 0 C0.99 0 1.98 0 3 0 C1.4169423 4.2742558 -1.50568404 6.26531794 -5 9 C-4.690625 8.401875 -4.38125 7.80375 -4.0625 7.1875 C-2.89790296 4.91043228 -2.89790296 4.91043228 -2 2 C-1.34 2 -0.68 2 0 2 C0 1.34 0 0.68 0 0 Z " fill="#DE9B34" transform="translate(409,241)"/>
<path d="M0 0 C0 3.15987325 -0.38214873 4.36034793 -2 7 C-2.99 7.66 -3.98 8.32 -5 9 C-5.33 8.01 -5.66 7.02 -6 6 C-4.02 4.02 -2.04 2.04 0 0 Z " fill="#2C3114" transform="translate(245,216)"/>
<path d="M0 0 C0 0.99 0 1.98 0 3 C-1.32 3.33 -2.64 3.66 -4 4 C-4.33 5.65 -4.66 7.3 -5 9 C-5.66 7.68 -6.32 6.36 -7 5 C-2.25 0 -2.25 0 0 0 Z " fill="#E2D585" transform="translate(288,207)"/>
<path d="M0 0 C1.32 0.66 2.64 1.32 4 2 C4 2.66 4 3.32 4 4 C1.5 5.625 1.5 5.625 -1 7 C-1.04254356 5.00045254 -1.04080783 2.99958364 -1 1 C-0.67 0.67 -0.34 0.34 0 0 Z " fill="#FAF37F" transform="translate(351,180)"/>
<path d="M0 0 C0.99 0 1.98 0 3 0 C1.60667426 3.36720387 0.0210714 4.9859524 -3 7 C-2.25 2.25 -2.25 2.25 0 0 Z " fill="#F9E87B" transform="translate(319,173)"/>
<path d="M0 0 C2.97 0.495 2.97 0.495 6 1 C6.66 3.31 7.32 5.62 8 8 C6.85073734 7.04578192 5.70569459 6.08647955 4.5625 5.125 C3.92441406 4.59132812 3.28632813 4.05765625 2.62890625 3.5078125 C1 2 1 2 0 0 Z " fill="#D9345A" transform="translate(421,125)"/>
<path d="M0 0 C3.8063457 0.67170806 7.35206816 1.72746564 11 3 C11 3.66 11 4.32 11 5 C5.06 3.515 5.06 3.515 -1 2 C-0.67 1.34 -0.34 0.68 0 0 Z " fill="#351122" transform="translate(406,33)"/>
<path d="M0 0 C0.33 0 0.66 0 1 0 C1.28301994 4.90567888 1.16492205 7.24528933 -2 11 C-1.85957123 9.35369672 -1.71250671 7.70795821 -1.5625 6.0625 C-1.48128906 5.14597656 -1.40007812 4.22945313 -1.31640625 3.28515625 C-1 1 -1 1 0 0 Z " fill="#26282A" transform="translate(118,375)"/>
<path d="M0 0 C0.625 1.8125 0.625 1.8125 1 4 C0.01 5.485 0.01 5.485 -1 7 C-1.99 7 -2.98 7 -4 7 C-3.43628586 3.73045798 -2.50037734 2.17424117 0 0 Z " fill="#ECD64C" transform="translate(274,138)"/>
<path d="M0 0 C0 3.99904969 -1.72586967 5.80200422 -4 9 C-4.66 8.01 -5.32 7.02 -6 6 C-4.02 4.02 -2.04 2.04 0 0 Z " fill="#1F2528" transform="translate(179,203)"/>
<path d="M0 0 C1 3 1 3 0.0625 5.1875 C-0.4634375 6.0846875 -0.4634375 6.0846875 -1 7 C-2.65 7 -4.3 7 -6 7 C-4.02 4.69 -2.04 2.38 0 0 Z " fill="#DACF7D" transform="translate(307,185)"/>
<path d="M0 0 C2.475 0.495 2.475 0.495 5 1 C5.33 1.99 5.66 2.98 6 4 C7.49985609 5.66710346 7.49985609 5.66710346 9 7 C6 7 6 7 4.39453125 5.46875 C3.87246094 4.8190625 3.35039062 4.169375 2.8125 3.5 C2.28269531 2.8503125 1.75289063 2.200625 1.20703125 1.53125 C0.80871094 1.0259375 0.41039062 0.520625 0 0 Z " fill="#B73162" transform="translate(453,154)"/>
<path d="M0 0 C0.66 0.99 1.32 1.98 2 3 C0.35 4.32 -1.3 5.64 -3 7 C-2.25 2.25 -2.25 2.25 0 0 Z " fill="#1C2529" transform="translate(232,147)"/>
<path d="M0 0 C1.33897583 0.95043374 2.67105427 1.91059147 4 2.875 C5.11375 3.67550781 5.11375 3.67550781 6.25 4.4921875 C6.8275 4.98976562 7.405 5.48734375 8 6 C8 6.66 8 7.32 8 8 C4.88801935 6.50163895 1.9465385 4.80066242 -1 3 C-0.67 2.01 -0.34 1.02 0 0 Z " fill="#FCE656" transform="translate(294,127)"/>
<path d="M0 0 C0.66 0.33 1.32 0.66 2 1 C1.04882866 2.1725131 0.08882991 3.33787015 -0.875 4.5 C-1.40867187 5.1496875 -1.94234375 5.799375 -2.4921875 6.46875 C-2.98976563 6.9740625 -3.48734375 7.479375 -4 8 C-4.66 8 -5.32 8 -6 8 C-4.55746343 4.63408134 -2.66735273 2.48952921 0 0 Z " fill="#0D1215" transform="translate(269,109)"/>
<path d="M0 0 C3.34373475 0.55728913 6.03312999 1.35173889 9 3 C9 3.66 9 4.32 9 5 C9.66 5 10.32 5 11 5 C10.67 5.66 10.34 6.32 10 7 C8.33073546 6.02526874 6.66464358 5.04510211 5 4.0625 C4.071875 3.51722656 3.14375 2.97195312 2.1875 2.41015625 C1.465625 1.94480469 0.74375 1.47945312 0 1 C0 0.67 0 0.34 0 0 Z " fill="#3C0E22" transform="translate(418,38)"/>
<path d="M0 0 C0.33 1.32 0.66 2.64 1 4 C-0.65 5.32 -2.3 6.64 -4 8 C-4.66 7.67 -5.32 7.34 -6 7 C-4.02 4.69 -2.04 2.38 0 0 Z " fill="#391F09" transform="translate(318,340)"/>
<path d="M0 0 C0.33 0.99 0.66 1.98 1 3 C-1.31 4.98 -3.62 6.96 -6 9 C-6.66 8.67 -7.32 8.34 -8 8 C-5.36 5.36 -2.72 2.72 0 0 Z " fill="#351D04" transform="translate(350,307)"/>
<path d="M0 0 C0.66 0.99 1.32 1.98 2 3 C0.75 4.5625 0.75 4.5625 -1 6 C-3.1875 5.6875 -3.1875 5.6875 -5 5 C-3.35 3.35 -1.7 1.7 0 0 Z " fill="#211D0C" transform="translate(298,283)"/>
<path d="M0 0 C0.66 0.33 1.32 0.66 2 1 C-0.31 3.64 -2.62 6.28 -5 9 C-5.33 8.01 -5.66 7.02 -6 6 C-4.02 4.02 -2.04 2.04 0 0 Z " fill="#342303" transform="translate(341,271)"/>
<path d="M0 0 C3.41158256 1.13719419 4.11854601 2.04342944 6 5 C6 5.66 6 6.32 6 7 C6.66 7.33 7.32 7.66 8 8 C7.01 8 6.02 8 5 8 C0 2.65116279 0 2.65116279 0 0 Z " fill="#371E08" transform="translate(395,217)"/>
<path d="M0 0 C0.33 0.66 0.66 1.32 1 2 C-0.98 4.64 -2.96 7.28 -5 10 C-5.66 9.67 -6.32 9.34 -7 9 C-4.69 6.03 -2.38 3.06 0 0 Z " fill="#E5E9EA" transform="translate(75,97)"/>
<path d="M0 0 C1.32 0.33 2.64 0.66 4 1 C5.3125 3.375 5.3125 3.375 6 6 C5.67 6.99 5.34 7.98 5 9 C3.35 6.03 1.7 3.06 0 0 Z " fill="#401128" transform="translate(477,90)"/>
<path d="M0 0 C0.66 0.33 1.32 0.66 2 1 C0.60667426 4.36720387 -0.9789286 5.9859524 -4 8 C-2.25 2.25 -2.25 2.25 0 0 Z " fill="#061017" transform="translate(318,85)"/>
<path d="M0 0 C2.31 0 4.62 0 7 0 C6.42655063 2.86724686 6.1385485 3.8614515 4 6 C3.896875 5.38125 3.79375 4.7625 3.6875 4.125 C3.12474627 1.63473516 3.12474627 1.63473516 0 0 Z " fill="#C5BDB8" transform="translate(304,62)"/>
<path d="M0 0 C0.94875 0.350625 1.8975 0.70125 2.875 1.0625 C2.875 1.7225 2.875 2.3825 2.875 3.0625 C-2.875 2.3125 -2.875 2.3125 -5.125 0.0625 C-3.125 -0.9375 -3.125 -0.9375 0 0 Z " fill="#E15B76" transform="translate(411.125,35.9375)"/>
<path d="M0 0 C0.66 0 1.32 0 2 0 C2 1.65 2 3.3 2 5 C2.99 5.33 3.98 5.66 5 6 C3.35 6.33 1.7 6.66 0 7 C0 4.69 0 2.38 0 0 Z " fill="#0B0C0F" transform="translate(104,443)"/>
<path d="M0 0 C0 3.10551666 -0.5393715 4.35261084 -2 7 C-3.32 6.67 -4.64 6.34 -6 6 C-4.02 4.02 -2.04 2.04 0 0 Z " fill="#352008" transform="translate(341,316)"/>
<path d="M0 0 C0.33 0.66 0.66 1.32 1 2 C-0.24546405 5.73639216 -1.63404953 6.18756513 -5 8 C-4.45773019 4.20411134 -2.79872437 2.52788007 0 0 Z " fill="#E9D846" transform="translate(193,225)"/>
<path d="M0 0 C0.66 0.66 1.32 1.32 2 2 C0.68 3.65 -0.64 5.3 -2 7 C-2.99 6.34 -3.98 5.68 -5 5 C-3.35 3.35 -1.7 1.7 0 0 Z " fill="#152127" transform="translate(454,195)"/>
<path d="M0 0 C0.66 0.33 1.32 0.66 2 1 C0.35 2.65 -1.3 4.3 -3 6 C-3.99 5.67 -4.98 5.34 -6 5 C-4.00856305 2.01284458 -3.23356015 1.21258505 0 0 Z " fill="#ECD43C" transform="translate(228,189)"/>
<path d="M0 0 C0.66 0 1.32 0 2 0 C1.75 1.875 1.75 1.875 1 4 C-1.0625 5.25 -1.0625 5.25 -3 6 C-2.42655063 3.13275314 -2.1385485 2.1385485 0 0 Z " fill="#FEF571" transform="translate(347,186)"/>
<path d="M0 0 C2.31 1.98 4.62 3.96 7 6 C6.34 6.66 5.68 7.32 5 8 C5 7.34 5 6.68 5 6 C3.68 5.67 2.36 5.34 1 5 C0.67 3.35 0.34 1.7 0 0 Z " fill="#2F0C19" transform="translate(360,69)"/>
<path d="M0 0 C1.32 0.33 2.64 0.66 4 1 C4 1.66 4 2.32 4 3 C4.66 3 5.32 3 6 3 C6.66 4.65 7.32 6.3 8 8 C6.85073734 7.04578192 5.70569459 6.08647955 4.5625 5.125 C3.92441406 4.59132813 3.28632813 4.05765625 2.62890625 3.5078125 C1 2 1 2 0 0 Z " fill="#DD5A6E" transform="translate(355,63)"/>
<path d="M0 0 C0.99 0.66 1.98 1.32 3 2 C1.35 3.98 -0.3 5.96 -2 8 C-2.33 6.68 -2.66 5.36 -3 4 C-2.01 4 -1.02 4 0 4 C0 2.68 0 1.36 0 0 Z " fill="#E39025" transform="translate(302,354)"/>
<path d="M0 0 C0 3 0 3 -2 5.1875 C-2.66 5.785625 -3.32 6.38375 -4 7 C-4.99 6.67 -5.98 6.34 -7 6 C-4.69 4.02 -2.38 2.04 0 0 Z " fill="#FACA0E" transform="translate(232,312)"/>
<path d="M0 0 C0.99 0.33 1.98 0.66 3 1 C1.6875 3 1.6875 3 0 5 C-0.99 5 -1.98 5 -3 5 C-1.125 1.125 -1.125 1.125 0 0 Z " fill="#ECDA3E" transform="translate(176,242)"/>
<path d="M0 0 C1.32 0.66 2.64 1.32 4 2 C2.35 3.32 0.7 4.64 -1 6 C-1.042721 4.33388095 -1.04063832 2.66617115 -1 1 C-0.67 0.67 -0.34 0.34 0 0 Z " fill="#DFC93D" transform="translate(231,226)"/>
<path d="M0 0 C0.66 0.33 1.32 0.66 2 1 C-0.75 5.875 -0.75 5.875 -3 7 C-2.25 2.25 -2.25 2.25 0 0 Z " fill="#F6DE3D" transform="translate(210,207)"/>
<path d="M0 0 C0 3.10551666 -0.5393715 4.35261084 -2 7 C-3.32 6.67 -4.64 6.34 -6 6 C-4.02 4.02 -2.04 2.04 0 0 Z " fill="#2B2B0A" transform="translate(265,196)"/>
<path d="M0 0 C0 3 0 3 -2.5 5.6875 C-3.325 6.450625 -4.15 7.21375 -5 8 C-5 5 -5 5 -2.5 2.3125 C-1.675 1.549375 -0.85 0.78625 0 0 Z " fill="#0E1518" transform="translate(186,196)"/>
<path d="M0 0 C2.31 0.33 4.62 0.66 7 1 C6.67 2.32 6.34 3.64 6 5 C2.83884224 3.63016497 2.0072908 3.0109362 0 0 Z " fill="#DB4D7B" transform="translate(469,169)"/>
<path d="M0 0 C0.33 1.32 0.66 2.64 1 4 C1.66 4 2.32 4 3 4 C3.33 4.99 3.66 5.98 4 7 C0.63279613 5.60667426 -0.9859524 4.0210714 -3 1 C-2.01 0.67 -1.02 0.34 0 0 Z " fill="#B12D60" transform="translate(449,147)"/>
<path d="M0 0 C0.33 0 0.66 0 1 0 C1 2.97 1 5.94 1 9 C0.01 9.33 -0.98 9.66 -2 10 C-1.34 6.7 -0.68 3.4 0 0 Z " fill="#4B0A1F" transform="translate(491,142)"/>
<path d="M0 0 C2.46800047 1.15173355 4.04783565 2.04783565 6 4 C5.67 4.99 5.34 5.98 5 7 C3.29115995 5.37660195 1.62553283 3.70680947 0 2 C0 1.34 0 0.68 0 0 Z " fill="#081027" transform="translate(332,76)"/>
<path d="M0 0 C0.99 0.33 1.98 0.66 3 1 C2 3 2 3 -1.0625 4.125 C-2.031875 4.41375 -3.00125 4.7025 -4 5 C-2.25 1.125 -2.25 1.125 0 0 Z " fill="#1E2626" transform="translate(89,46)"/>
<path d="M0 0 C0 0.66 0 1.32 0 2 C-0.99 2 -1.98 2 -3 2 C-3.33 3.32 -3.66 4.64 -4 6 C-4.99 6 -5.98 6 -7 6 C-3.61538462 0 -3.61538462 0 0 0 Z " fill="#CD5862" transform="translate(380,38)"/>
</svg>
