<?xml version="1.0" encoding="utf-8"?>
<!-- Generator: Adobe Illustrator 26.0.3, SVG Export Plug-In . SVG Version: 6.00 Build 0)  -->
<svg version="1.1" id="Layer_1" xmlns="http://www.w3.org/2000/svg" xmlns:xlink="http://www.w3.org/1999/xlink" x="0px" y="0px"
	 viewBox="0 0 230.9 282.4" style="enable-background:new 0 0 230.9 282.4;" xml:space="preserve">
<style type="text/css">
	.st0{fill:#FFFFFF;}
	.st1{fill:none;stroke:#FFFFFF;stroke-width:25;stroke-miterlimit:10;}
</style>
<g id="Layer_2_00000153667120762748411440000007657812558407911581_">
	<g id="Layer_1-2">
		<path class="st0" d="M0.1,102.8c0-25.2,0-50.3,0-75.4C0.1,9.1,9.1,0.1,27.4,0.1c43.5,0,86.9,0,130.4-0.1c4,0,5.6,0.7,5.2,5
			c-0.4,4.7-0.4,9.3,0,14c0.2,3.6-0.9,4.4-4.4,4.4c-43.1-0.1-86.3,0-129.4-0.2c-5,0-5.8,1.5-5.8,6.1c0.2,50.6,0.1,101.2,0.2,151.9
			c0,4.2-1.1,5.4-5.2,5.1c-4.7-0.3-9.3-0.3-14,0c-3.7,0.2-4.3-1.1-4.3-4.5C0.1,155.4,0.1,129.1,0.1,102.8z"/>
		<path class="st1" d="M82.9,60.6h110.8c13.7,0,24.8,11.1,24.8,24.8v159.8c0,13.7-11.1,24.8-24.8,24.8H82.9
			c-13.7,0-24.8-11.1-24.8-24.8V85.3C58.1,71.7,69.2,60.6,82.9,60.6z"/>
	</g>
</g>
</svg>
