<svg xmlns="http://www.w3.org/2000/svg" viewBox="0 0 147.39 137.59"><defs><style>.cls-1{stroke:#000;stroke-miterlimit:10;}</style></defs><g id="Layer_2" data-name="Layer 2"><g id="Layer_1-2" data-name="Layer 1"><path class="cls-1" d="M97.24,137.09a48.71,48.71,0,0,0,18.57-5.83c13-6.94,18.25-30.12,2.92-41.09-2.43-1.74-4.71-3.83-7.39-5A26.84,26.84,0,0,1,98.06,72.06C93,62,84.44,58.2,73.88,57.18s-18.31,2.6-23,12.14A26.07,26.07,0,0,1,38,82.1,35,35,0,0,0,21.67,97.45c-6.76,12.64-2.64,26.19,9.62,33.39,10.37,6.09,21,7.57,32.19,3.1,6.86-2.73,13.51-2.45,20.4-.09C88.2,135.32,92.77,136,97.24,137.09ZM57.84.63C48.14-.12,37.55,7.32,36.1,19.39s2.79,22.36,11,30.85C56.81,60.35,70.72,57,75,43.63A45.17,45.17,0,0,0,74.62,14a26.48,26.48,0,0,0-4.26-7.36C67.13,2.56,63-.12,57.84.63ZM119.54,22C120.05,9.9,115,2.92,105.48,1.29,99.05.19,93.65,2.37,89,6.59,77.7,17,75.3,29.85,80.05,43.45c4.84,13.88,17.52,17.75,28,5.85C115.18,41.2,119.51,31.89,119.54,22ZM.5,51.19C1.39,64,4.71,74.66,15.43,81.44c12.1,7.64,29.1-.36,29-14-.08-12.31-4.82-23.17-14.74-30.93C20,28.93,6.62,32.11,2.07,42.92.91,45.69.9,48.94.5,51.19Zm146.39,2.56c-.14-7.19-2.51-12.65-8.66-15.89s-12-1.8-17.45,2.09c-6.57,4.68-10.11,11.42-13,18.68a23.72,23.72,0,0,0,.45,18.82c3.4,7.78,14.41,11.19,21.49,6.46C140.65,76.64,146,66.16,146.89,53.75Z"/><path d="M97.24,137.09c-4.47-1.06-9-1.77-13.36-3.24-6.89-2.36-13.54-2.64-20.4.09-11.21,4.47-21.82,3-32.19-3.1-12.26-7.2-16.38-20.75-9.62-33.39A35,35,0,0,1,38,82.1,26.07,26.07,0,0,0,50.91,69.32c4.66-9.54,12.34-13.18,23-12.14S93,62,98.06,72.06a26.84,26.84,0,0,0,13.28,13.08c2.68,1.2,5,3.29,7.39,5,15.33,11,10.1,34.15-2.92,41.09A48.71,48.71,0,0,1,97.24,137.09Z"/><path d="M57.84.63c5.2-.75,9.29,1.93,12.52,6A26.48,26.48,0,0,1,74.62,14,45.17,45.17,0,0,1,75,43.63c-4.32,13.37-18.23,16.72-28,6.61-8.18-8.49-12.43-18.69-11-30.85S48.14-.12,57.84.63Z"/><path d="M119.54,22c0,9.89-4.36,19.2-11.49,27.3-10.48,11.9-23.16,8-28-5.85C75.3,29.85,77.7,17,89,6.59c4.61-4.22,10-6.4,16.44-5.3C115,2.92,120.05,9.9,119.54,22Z"/><path d="M.5,51.19c.4-2.25.41-5.5,1.57-8.27,4.55-10.81,17.89-14,27.64-6.36,9.92,7.76,14.66,18.62,14.74,30.93.08,13.59-16.92,21.59-29,14C4.71,74.66,1.39,64,.5,51.19Z"/><path d="M146.89,53.75c-.89,12.41-6.24,22.89-17.12,30.16-7.08,4.73-18.09,1.32-21.49-6.46a23.72,23.72,0,0,1-.45-18.82c2.84-7.26,6.38-14,13-18.68,5.45-3.89,11.21-5.38,17.45-2.09S146.75,46.56,146.89,53.75Z"/></g></g></svg>