<svg xmlns="http://www.w3.org/2000/svg" viewBox="0 0 92.86 147.17"><defs><style>.cls-1{fill:#4a379f;}.cls-2{fill:#34208b;}.cls-3{fill:#8672da;}.cls-4{fill:#7c68d5;}.cls-5{fill:#836fd9;}.cls-6{fill:#ae9ef3;}.cls-7{fill:#7965d3;}.cls-8{fill:#7f6ad6;}.cls-9{fill:#6c56cb;}.cls-10{fill:#806cd7;}.cls-11{fill:#7763d2;}.cls-12{fill:#7560d1;}.cls-13{fill:#826ed8;}.cls-14{fill:#735ecf;}.cls-15{fill:#6f59cd;}.cls-16{fill:#715bce;}.cls-17{fill:#8875dc;}.cls-18{fill:#8b77dd;}.cls-19{fill:#8d7adf;}</style></defs><g id="Layer_2" data-name="Layer 2"><g id="Layer_1-2" data-name="Layer 1"><path class="cls-1" d="M69.47,147.17C62,145.54,55,142.26,47.69,140.1c-5.47-1.61-10.8-3.66-16.19-5.54-1.23-.43-2.65-.64-3.2-2.12-2.5-9.23-2.85-18.69-3.38-28.18C24.11,89.62,23.71,75,22.29,60.34c-.26-2.64-.72-5.36.57-7.91a2,2,0,0,1,1.9-.25,13.54,13.54,0,0,1,4.36,7.06,34,34,0,0,1,3.32,7.16,14.6,14.6,0,0,1,2.2,5.07c.43,1.12,1.62,1.71,2,2.87,1.13,1.35,1.2,3.12,1.87,4.64a9,9,0,0,1,2.12,5c1.11,1.95,2.75,3.58,3.58,5.71,0,2.44,2.24,3.88,2.72,6.1a21.11,21.11,0,0,1,2.76,6.05c.4,2.24,2.41,3.67,2.93,5.85s2.39,4.11,2.7,6.53a20.78,20.78,0,0,1,2.46,4.48c1,2.6,3,4.81,3.42,7.67,3.42,4.93,5.59,10.51,8.14,15.88A7.47,7.47,0,0,1,69.47,147.17Z"/><path class="cls-2" d="M24,53c.86,14.77,1.74,29.54,2.55,44.31.65,11.72,1.2,23.44,1.8,35.16L8.36,86.93Q4.69,78.56,1,70.2C.25,68.51-.49,67,.43,65Q9.58,45.68,18.61,26.31a2.11,2.11,0,0,1,2.68,2c1.15,8,3.89,15.66,3.62,23.82A2.42,2.42,0,0,1,24,53Z"/><path class="cls-1" d="M24,52.33q-2.68-13-5.36-26c3.6-3.56,8.38-5.21,12.65-7.66,10.33-5.93,20.8-11.6,31.27-17.27,1.08-.59,2.19-2.3,3.79-.74,1.33,6.56.22,13.07-.36,19.59-4.5,6.48-11.17,10.43-17.42,14.87-1.48,1-3.45,1.7-3.47,4-6,3.2-10.73,8.31-16.64,11.69C27,51.63,25.82,52.89,24,52.33Z"/><path class="cls-3" d="M31.34,67c-1.66-2-2.36-4.44-3.52-6.67A4.8,4.8,0,0,1,31,56.75c16.28-7,32.69-13.71,49-20.63,2.17-.92,4.61-1,6.62-2.35,2.27.54,3.33,2.79,5.3,3.78,2,1.36.2,3,.27,4.43a10.83,10.83,0,0,1-4.27,3.25c-17.31,7.29-34.6,14.63-52,21.69C34.37,67.53,32.86,68.29,31.34,67Z"/><path class="cls-4" d="M42.5,90.47l-3-5.93c.12-1.92,1.38-2.91,3-3.55C56.3,75.44,69.86,69.34,83.7,63.93c1.79-.7,3.48-1.28,4.75.83L87,73.58c-3.17,2.92-7.28,4-11.09,5.69-9.34,4-18.72,7.93-28.11,11.84C45.82,91.94,44.1,92.09,42.5,90.47Z"/><path class="cls-5" d="M31.34,67Q60,54.92,88.64,42.9A26,26,0,0,1,92.16,42c-.26,2-.51,3.94-.77,5.91a9.31,9.31,0,0,1-4.5,3.78C71,58.5,55,65.09,39.06,71.81c-1.8.76-3.6,1.29-5.48.27A16.76,16.76,0,0,1,31.34,67Z"/><path class="cls-6" d="M91.89,37.55l-5.32-2.31c-2.81-.26-5.5-.87-7.71-2.78-2-2.31-5.59-2.19-7.3-4.9-1.77-1.34-4-1.89-5.78-3.2-1.4-1-2.11-2.09-1.57-3.8.34-5.37.66-10.74,1.05-16.11.1-1.31.09-2.71,1.06-3.81Q79.1,19.1,91.89,37.55Z"/><path class="cls-7" d="M42.5,90.47c7.57-1.59,14.27-5.45,21.38-8.25,5.65-2.23,11.2-4.71,16.8-7.08A16.35,16.35,0,0,1,87,73.58c-.47,2.45-.93,4.9-1.4,7.35a8.57,8.57,0,0,1-3.82,3.37q-16,6.8-32.06,13.39c-1.85.76-3.39.57-4.44-1.31Z"/><path class="cls-8" d="M88.45,64.76c-6.48,1.12-12.17,4.39-18.16,6.8C60,75.72,49.78,80.2,39.53,84.54Q38.41,82,37.27,79.42a3.75,3.75,0,0,1,2.56-3.27c14.94-6.31,30-12.37,44.89-18.77,1.54-.66,3.48-1.81,4.62.77C89.7,60.44,88.82,62.57,88.45,64.76Z"/><path class="cls-9" d="M69.47,147.17l-9.63-20.61a3.56,3.56,0,0,1,2.26-3.1c4.34-1.9,8.66-3.87,13.09-5.55a4,4,0,0,1,4.45.5,63.19,63.19,0,0,1-8.57,26.49C70.59,145.69,70.62,146.84,69.47,147.17Z"/><path class="cls-10" d="M89.34,58.15c-6.84,1.53-12.92,5-19.34,7.63-11,4.43-21.82,9.08-32.73,13.64A12.73,12.73,0,0,1,35.11,75a4.72,4.72,0,0,1,3-2.75C54,65.55,69.91,59,85.77,52.21c1.71-.72,3.15-1,4.3.8A10.07,10.07,0,0,1,89.34,58.15Z"/><path class="cls-11" d="M45.29,96.38c1.79.52,3.32-.3,4.9-.94C62,90.63,73.61,85.29,85.61,80.93a17.16,17.16,0,0,1-1.34,7.38,11.07,11.07,0,0,1-4.83,3.42q-12.82,5.46-25.69,10.81c-1.9.79-3.86,1.65-5.66-.26C47.16,100.32,46.22,98.35,45.29,96.38Z"/><path class="cls-12" d="M48.09,102.28c10.3-3.17,19.89-8.12,29.9-12a24.32,24.32,0,0,1,6.28-1.94l-.93,7.32a13.32,13.32,0,0,1-5.34,4c-7.44,3-14.89,6-22.27,9.1-1.82.77-3.31.76-4.79-.53Z"/><path class="cls-13" d="M90.07,53c-9,2.71-17.41,7-26.1,10.52-8.26,3.35-16.42,6.91-24.65,10.32A37.5,37.5,0,0,1,35.11,75l-1.53-3L91.39,47.89Z"/><path class="cls-14" d="M50.94,108.2c9.52-3.12,18.56-7.48,27.91-11,1.48-.56,3-1,4.49-1.53-.48,2.46-1,4.91-1.46,7.37-.59,1.7-2.1,2.43-3.54,3.14-6.77,3.3-13.83,5.89-20.73,8.89-1.26.55-2.33,0-3.45-.34Z"/><path class="cls-15" d="M79.64,118.41c-6.79,2.26-13.26,5.29-19.8,8.15l-3.64-7.39c.49-1.76,2-2.39,3.47-3,5.54-2.22,11.08-4.42,16.5-6.9,1.81-.83,3.23-.56,4.4,1Z"/><path class="cls-16" d="M80.57,110.33C75.39,111,71,114,66.22,115.7c-3.32,1.2-6.53,2.74-10,3.47a13.78,13.78,0,0,1-2-4.48c9.06-4.32,18.33-8.16,27.72-11.69C81.93,105.53,81.08,107.9,80.57,110.33Z"/><path class="cls-17" d="M79.68,31c2.36,1.32,4.94,2.28,6.89,4.26L43.68,53.48q-7.95,3.39-15.86,6.8c-1-2.19-2-4.37-3-6.56,1.7-2.42,4.37-3.56,6.89-4.64q20.49-8.8,41.12-17.26C75,30.93,77.25,30.11,79.68,31Z"/><path class="cls-18" d="M79.68,31Q54.15,41.71,28.62,52.41c-1.24.52-2.54.88-3.81,1.31L24,53a4.56,4.56,0,0,1,0-.64L43.64,37.4c1.91.27,3-1.33,4.5-2,6.5-2.81,13.07-5.43,19.54-8.27,1.59-.7,3.21-.21,4.77-.62C74.78,28.15,77.6,29,79.68,31Z"/><path class="cls-19" d="M72.45,26.53c-8.16,4.91-17.13,7.94-26,11.24a3.72,3.72,0,0,1-2.83-.37C49.1,32.19,55.41,28,61.17,23.17c1-.86,2-1.74,3-2.61C66.45,23.24,70,24.18,72.45,26.53Z"/></g></g></svg>